<?xml version="1.0" encoding="utf-8"?>
<!-- Generator: Adobe Illustrator 26.4.1, SVG Export Plug-In . SVG Version: 6.00 Build 0)  -->
<svg version="1.1" id="Layer_1" xmlns="http://www.w3.org/2000/svg" xmlns:xlink="http://www.w3.org/1999/xlink" x="0px" y="0px"
	 viewBox="0 0 2000 1500" style="enable-background:new 0 0 2000 1500;" xml:space="preserve">
<style type="text/css">
	.st0{fill-rule:evenodd;clip-rule:evenodd;fill:#001F60;}
	.st1{fill:#002060;}
	.st2{fill:#001F60;}
</style>
<g>
	<polygon class="st0" points="714.3,504.3 626.5,504.3 605.6,481.2 531.4,481.2 513.4,501.2 180.8,501.2 180.8,499.2 512.6,499.2 
		530.7,479.2 606.4,479.2 627.3,502.3 713.5,502.3 732.1,470.4 833.3,470.4 856.8,502 1016.7,502 1116.2,446.2 1117.5,447.6 
		1017.5,504 856,504 832.3,472.4 732.9,472.4 	"/>
	<path class="st0" d="M180.8,504c-2.1,0-3.6-1.7-3.6-4c0-2.3,1.5-4,3.6-4s3.6,1.7,3.6,4C184.5,502.3,182.9,504,180.8,504z"/>
	<path class="st0" d="M1119.3,449.9c1.3-1.4,1.3-4,0-5.7c-1.3-1.4-3.6-1.4-5.2,0c-1.3,1.4-1.3,4,0,5.7
		C1115.7,451.3,1118,451.3,1119.3,449.9z"/>
	<polygon class="st0" points="1075,581 1049.5,581 1016.7,544.8 856.8,544.8 838.5,576.8 729.5,576.8 713.5,544.5 627.3,544.5 
		606.4,567.6 530.7,567.6 512.6,548 386.9,548 386.9,545.7 513.4,545.7 531.4,565.6 605.6,565.6 626.5,542.5 714.3,542.5 
		730.3,574.5 837.5,574.5 856,542.8 1017.5,542.8 1050.2,578.7 1075,578.7 	"/>
	<ellipse class="st0" cx="386.9" cy="546.8" rx="3.6" ry="4"/>
	<path class="st0" d="M1074.7,583.9c2.1,0,3.6-1.7,3.6-4s-1.5-4-3.6-4c-2.1,0-3.6,1.7-3.6,4S1072.6,583.9,1074.7,583.9z"/>
	<polygon class="st0" points="312.5,500.9 311.2,499.5 365.5,473.5 491.2,473.5 491.2,475.5 366.3,475.5 	"/>
	<path class="st0" d="M491,478.4c2.1,0,3.6-1.7,3.6-4c0-2.3-1.5-4-3.6-4s-3.6,1.7-3.6,4C487.4,476.7,489.2,478.4,491,478.4z"/>
	<polygon class="st0" points="663.1,504 661.8,502.6 712.8,446.2 791.9,446.2 858.8,360.6 860.4,362 792.6,448.4 713.5,448.4 	"/>
	<path class="st0" d="M861.9,364c1.3-1.4,1.3-4,0-5.7c-1.3-1.4-3.6-1.4-5.2,0c-1.3,1.4-1.3,4,0,5.7
		C858.3,365.8,860.6,365.8,861.9,364z"/>
	<polygon class="st0" points="874.5,503.8 873.3,502.3 898,475 969.9,475 1015.7,424.2 1061.8,424.2 1141.4,378.9 1142.7,380.3 
		1062.6,426.2 1016.7,426.2 970.6,477.2 898.8,477.2 	"/>
	<path class="st0" d="M1144.5,382.6c1.3-1.4,1.3-4,0-5.7c-1.3-1.4-3.6-1.4-5.2,0c-1.3,1.4-1.3,4,0,5.7
		C1140.9,384,1143.2,384,1144.5,382.6z"/>
	<polygon class="st0" points="556.7,539.4 546.4,528 324.8,528 269.7,501.2 271,499.8 325.6,526 547.1,526 558,537.7 	"/>
	<path class="st0" d="M554.6,541.1c1.3,1.4,3.6,1.4,5.2,0c1.3-1.4,1.3-4,0-5.7c-1.3-1.4-3.6-1.4-5.2,0
		C553.3,537.1,553.3,539.7,554.6,541.1z"/>
	<polygon class="st0" points="913.4,525.4 805,525.4 757.1,472.4 758.4,471 805.8,523.4 913.4,523.4 	"/>
	<path class="st0" d="M915.8,528.3c2.1,0,3.6-1.7,3.6-4c0-2.3-1.5-4-3.6-4c-2.1,0-3.6,1.7-3.6,4
		C912.2,526.6,913.7,528.3,915.8,528.3z"/>
	<polygon class="st0" points="840.3,484.7 838.7,482.9 861.1,458.4 932.8,458.4 932.8,460.4 861.9,460.4 	"/>
	<path class="st0" d="M932.5,463.3c2.1,0,3.6-1.7,3.6-4c0-2.3-1.5-4-3.6-4s-3.6,1.7-3.6,4C929.2,461.6,930.7,463.3,932.5,463.3z"/>
	<polygon class="st0" points="799.8,576.2 750.9,522 584.5,522 584.5,519.7 751.7,520 801.1,574.8 	"/>
	<path class="st0" d="M584.8,516.9c-2.1,0-3.6,1.7-3.6,4c0,2.3,1.5,4,3.6,4c2.1,0,3.6-1.7,3.6-4
		C588.4,518.6,586.6,516.9,584.8,516.9z"/>
	<polygon class="st0" points="745.4,871.7 657.6,871.7 636.7,848.6 562.5,848.6 544.5,868.6 211.9,868.6 211.9,866.6 543.7,866.6 
		561.7,846.6 637.5,846.6 658.3,869.7 744.6,869.7 763.2,837.8 864.4,837.8 887.8,869.4 1047.8,869.4 1147.2,813.5 1148.5,815 
		1048.6,871.4 887.1,871.4 863.4,839.8 763.9,839.8 	"/>
	<path class="st0" d="M211.9,871.4c-2.1,0-3.6-1.7-3.6-4c0-2.3,1.5-4,3.6-4c2.1,0,3.6,1.7,3.6,4C215.5,869.7,214,871.4,211.9,871.4z
		"/>
	<path class="st0" d="M1150.3,817.2c1.3-1.4,1.3-4,0-5.7c-1.3-1.4-3.6-1.4-5.2,0c-1.3,1.4-1.3,4,0,5.7
		C1146.7,818.7,1149,818.7,1150.3,817.2z"/>
	<polygon class="st0" points="1106,948.4 1080.5,948.4 1047.8,912.2 887.8,912.2 869.6,944.1 760.6,944.1 744.6,911.9 658.3,911.9 
		637.5,935 561.7,935 543.7,915.3 418,915.3 418,913.1 544.5,913.1 562.5,933 636.7,933 657.6,909.9 745.4,909.9 761.4,941.9 
		868.5,941.9 887.1,910.2 1048.6,910.2 1081.3,946.1 1106,946.1 	"/>
	<path class="st0" d="M418,918.2c-2.1,0-3.6-1.7-3.6-4s1.5-4,3.6-4c2.1,0,3.6,1.7,3.6,4C421.6,916.2,420.1,918.2,418,918.2z"/>
	<ellipse class="st0" cx="1105.8" cy="947.3" rx="3.6" ry="4"/>
	<polygon class="st0" points="343.6,868.3 342.3,866.9 396.6,840.9 522.3,840.9 522.3,842.9 397.4,842.9 	"/>
	<path class="st0" d="M522.1,845.8c2.1,0,3.6-1.7,3.6-4c0-2.3-1.5-4-3.6-4s-3.6,1.7-3.6,4C518.5,844,520.3,845.8,522.1,845.8z"/>
	<polygon class="st0" points="694.1,871.4 692.8,870 743.9,813.5 822.9,813.5 889.9,728 891.5,729.4 823.7,815.8 744.6,815.8 	"/>
	<path class="st0" d="M893,731.4c1.3-1.4,1.3-4,0-5.7c-1.3-1.4-3.6-1.4-5.2,0c-1.3,1.4-1.3,4,0,5.7
		C889.4,733.1,891.7,733.1,893,731.4z"/>
	<polygon class="st0" points="905.6,871.1 904.3,869.7 929.1,842.3 1000.9,842.3 1046.8,791.6 1092.9,791.6 1172.5,746.2 
		1173.8,747.7 1093.7,793.6 1047.8,793.6 1001.7,844.6 929.8,844.6 	"/>
	<path class="st0" d="M1175.6,750c1.3-1.4,1.3-4,0-5.7c-1.3-1.4-3.6-1.4-5.2,0c-1.3,1.4-1.3,4,0,5.7
		C1172,751.4,1174.3,751.4,1175.6,750z"/>
	<polygon class="st0" points="587.8,906.8 577.4,895.4 355.9,895.4 300.8,868.6 302.1,867.1 356.7,893.4 578.2,893.4 589,905.1 	"/>
	<path class="st0" d="M585.7,908.5c1.3,1.4,3.6,1.4,5.2,0c1.3-1.4,1.3-4,0-5.7c-1.3-1.4-3.6-1.4-5.2,0
		C584.4,904.5,584.4,907.1,585.7,908.5z"/>
	<polygon class="st0" points="944.5,892.8 836.1,892.8 788.2,839.8 789.4,838.3 836.8,890.8 944.5,890.8 	"/>
	<ellipse class="st0" cx="946.8" cy="891.7" rx="3.6" ry="4"/>
	<polygon class="st0" points="871.4,852 869.8,850.3 892.2,825.8 963.8,825.8 963.8,827.8 893,827.8 	"/>
	<path class="st0" d="M963.6,830.6c2.1,0,3.6-1.7,3.6-4c0-2.3-1.5-4-3.6-4s-3.6,1.7-3.6,4C960.2,828.9,961.8,830.6,963.6,830.6z"/>
	<polygon class="st0" points="830.9,943.6 782,889.4 615.6,889.4 615.6,887.1 782.7,887.4 832.2,942.1 	"/>
	<path class="st0" d="M615.8,884.3c-2.1,0-3.6,1.7-3.6,4c0,2.3,1.5,4,3.6,4c2.1,0,3.6-1.7,3.6-4C619.4,886,617.6,884.3,615.8,884.3z
		"/>
	<polygon class="st0" points="791.4,302.5 856.8,302.5 872.3,319.7 927.6,319.7 941,304.8 1188.7,304.8 1188.7,306.3 941.6,306.3 
		928.2,321.2 871.8,321.2 856.2,304 791.9,304 778.1,327.7 702.7,327.7 685.2,304.2 566.1,304.2 492,345.8 491.1,344.7 565.5,302.7 
		685.8,302.7 703.5,326.3 777.5,326.3 	"/>
	<path class="st0" d="M1188.7,302.7c1.5,0,2.7,1.3,2.7,3s-1.2,3-2.7,3c-1.5,0-2.7-1.3-2.7-3S1187.2,302.7,1188.7,302.7z"/>
	<path class="st0" d="M489.7,343c-1,1.1-1,3,0,4.2c1,1.1,2.7,1.1,3.8,0c1-1.1,1-3,0-4.2C492.4,342,490.7,342,489.7,343z"/>
	<polygon class="st0" points="522.7,245.3 541.7,245.3 566.1,272.3 685.2,272.3 698.9,248.5 780,248.5 791.9,272.5 856.2,272.5 
		871.8,255.3 928.2,255.3 941.6,270 1035.2,270 1035.2,271.7 941,271.7 927.6,256.8 872.3,256.8 856.8,274 791.4,274 779.5,250.2 
		699.6,250.2 685.8,273.8 565.5,273.8 541.1,247 522.7,247 	"/>
	<path class="st0" d="M1035.2,267.8c1.5,0,2.7,1.3,2.7,3s-1.2,3-2.7,3c-1.5,0-2.7-1.3-2.7-3C1032.5,269.3,1033.7,267.8,1035.2,267.8
		z"/>
	<ellipse class="st0" cx="522.9" cy="246.2" rx="2.7" ry="3"/>
	<polygon class="st0" points="1090.7,305 1091.6,306.1 1051.2,325.4 957.5,325.4 957.5,323.9 1050.6,323.9 	"/>
	<path class="st0" d="M957.7,321.8c-1.5,0-2.7,1.3-2.7,3s1.2,3,2.7,3s2.7-1.3,2.7-3S959.1,321.8,957.7,321.8z"/>
	<polygon class="st0" points="829.5,302.7 830.5,303.7 792.5,345.8 733.6,345.8 683.7,409.5 682.6,408.5 733,344.1 791.9,344.1 	"/>
	<path class="st0" d="M681.4,407c-1,1.1-1,3,0,4.2c1,1.1,2.7,1.1,3.8,0c1-1.1,1-3,0-4.2C684.1,405.7,682.4,405.7,681.4,407z"/>
	<polygon class="st0" points="672,302.9 673,304 654.5,324.3 601,324.3 566.9,362.2 532.5,362.2 473.2,395.9 472.3,394.9 
		531.9,360.7 566.1,360.7 600.4,322.6 654,322.6 	"/>
	<path class="st0" d="M470.9,393.2c-1,1.1-1,3,0,4.2c1,1.1,2.7,1.1,3.8,0c1-1.1,1-3,0-4.2C473.6,392.1,471.9,392.1,470.9,393.2z"/>
	<polygon class="st0" points="908.8,276.3 916.5,284.8 1081.5,284.8 1122.5,304.8 1121.6,305.9 1080.9,286.3 915.9,286.3 
		907.8,277.6 	"/>
	<path class="st0" d="M910.3,275.1c-1-1.1-2.7-1.1-3.8,0c-1,1.1-1,3,0,4.2c1,1.1,2.7,1.1,3.8,0C911.3,278,911.3,276.1,910.3,275.1z"
		/>
	<polygon class="st0" points="643,286.8 723.8,286.8 759.5,326.3 758.5,327.3 723.2,288.2 643,288.2 	"/>
	<ellipse class="st0" cx="641.3" cy="287.6" rx="2.7" ry="3"/>
	<polygon class="st0" points="697.5,317.1 698.7,318.4 682,336.7 628.6,336.7 628.6,335.2 681.4,335.2 	"/>
	<path class="st0" d="M628.8,333.1c-1.5,0-2.7,1.3-2.7,3s1.2,3,2.7,3c1.5,0,2.7-1.3,2.7-3C631.3,334.3,630.2,333.1,628.8,333.1z"/>
	<polygon class="st0" points="727.6,248.9 764.1,289.3 888.1,289.3 888.1,291 763.5,290.8 726.7,250 	"/>
	<ellipse class="st0" cx="887.9" cy="290.2" rx="2.7" ry="3"/>
	<path class="st0" d="M1252.2,344.1c-2.5,0-4.7,1.4-5.9,3.7h-111.7l-13.5,15h-41.7L1035,412h-62.2l-1.1-0.9l-0.8,0.9H821.2
		l-31.3,34.6h-96l-6.3-7c0.6-2.6,0-5.4-1.7-7.3c-1.3-1.4-3-2.1-4.9-2.1c-1.9,0-3.6,0.7-4.9,2.1c-1.3,1.4-1.9,3.3-1.9,5.4
		c0,2.1,0.6,4,1.9,5.4c1.3,1.4,3,2.1,4.9,2.1c0.6,0,1.3,0,1.9-0.2l8.2,9.1h92l-13.3,14.7c-0.6-0.2-1.3-0.2-1.9-0.2
		c-1.9,0-3.6,0.7-4.9,2.1c-1.3,1.4-1.9,3.3-1.9,5.4c0,2.1,0.6,4,1.9,5.4c1.3,1.4,3,2.1,4.9,2.1c1.9,0,3.6-0.7,4.9-2.1
		c1.7-1.9,2.3-4.7,1.7-7.3l49.5-54.8h77l-18.2,20.1h-32.4c-1.3-2.3-3.4-3.7-5.9-3.7c-3.8,0-6.8,3.3-6.8,7.5c0,4.2,3,7.5,6.8,7.5
		c2.5,0,4.7-1.4,5.9-3.7h35.1l24.7-28.1h53.5l-52.9,58.5H805.5l-36.4,40.3h-34.9l-32.8-36.3h-50.1L634,462.3h-66.4
		c-1.3-2.3-3.4-3.7-5.9-3.7c-3.8,0-6.8,3.3-6.8,7.5c0,4.2,3,7.5,6.8,7.5c2.5,0,4.7-1.4,5.9-3.7h63.7l10.8,11.9h-95
		c-1.3-2.3-3.4-3.7-5.9-3.7c-3.8,0-6.8,3.3-6.8,7.5c0,4.2,3,7.5,6.8,7.5c2.5,0,4.7-1.4,5.9-3.7h151.8l26,29H477.7
		c-1.3-2.3-3.4-3.7-5.9-3.7c-3.8,0-6.8,3.3-6.8,7.5s3,7.5,6.8,7.5c2.5,0,4.9-1.6,5.9-3.7h295.2l36.4-40.3h105.3l32.1-35.6h31.3
		l10.8,11.9c-0.6,2.6,0,5.4,1.7,7.3c1.3,1.4,3,2.1,4.9,2.1c1.9,0,3.6-0.7,4.9-2.1c1.3-1.4,1.9-3.3,1.9-5.4c0-2.1-0.6-4-1.9-5.4
		c-1.3-1.4-3-2.1-4.9-2.1c-0.6,0-1.3,0-1.9,0.2l-12.9-14.3h-27.3l20.7-22.9h64.1l44.2-48.9h41.7l13.5-15h108.7
		c1.3,2.3,3.4,3.7,5.9,3.7c3.8,0,6.8-3.3,6.8-7.5C1258.9,347.4,1256,344.1,1252.2,344.1z"/>
	<path class="st0" d="M980,287.9l-55.8,62h-93.9l-23.5-26h-126l-77.4,85.7h-25.8l-28.1-31.1H369.6l-22.8-25.3c0.6-2.6,0-5.4-1.7-7.3
		c-1.3-1.4-3-2.1-4.9-2.1s-3.6,0.7-4.9,2.1c-2.7,3-2.7,7.7,0,10.8c1.3,1.4,3,2.1,4.9,2.1c0.6,0,1.3,0,1.9-0.2l24.7,27.2h179.8
		l21.4,23.6h-69.8c-1.3-2.3-3.4-3.7-5.9-3.7c-3.8,0-6.8,3.3-6.8,7.5c0,4.2,3,7.5,6.8,7.5c2.5,0,4.7-1.4,5.9-3.7h107.9l77.4-85.7
		h120.3l16.7,18.5H711.2l-81,89.7H334.1c-1.3-2.3-3.4-3.7-5.9-3.7c-3.8,0-6.8,3.3-6.8,7.5c0,4.2,3,7.5,6.8,7.5
		c2.5,0,4.7-1.4,5.9-3.7h183.4l-16.1,18H386.1c-1.3-2.3-3.4-3.7-5.9-3.7c-3.8,0-6.8,3.3-6.8,7.5c0,4.2,3,7.5,6.8,7.5
		c2.5,0,4.7-1.4,5.9-3.7h118l22.8-25.3h106l43.6-47.8h56.3l19.5,21.5c-0.6,2.6,0,5.4,1.7,7.3c1.3,1.4,3,2.1,4.9,2.1
		c1.9,0,3.6-0.7,4.9-2.1c1.3-1.4,1.9-3.3,1.9-5.4c0-2.1-0.6-4-1.9-5.4c-1.3-1.4-3-2.1-4.9-2.1c-0.6,0-1.3,0-1.9,0.2l-21.6-23.9
		h-52.2l30.9-34.2h212.8l56-62h125v-7.5H980z"/>
	<path class="st0" d="M1265.3,388.6c-1.3-1.4-3-2.1-4.9-2.1c-0.6,0-1.3,0-1.9,0.2l-22.2-24.6h-51.2l-25.4,28.1h-47.4l-42.3,46.8h-34
		c-1.3-2.3-3.4-3.7-5.9-3.7c-3.8,0-6.8,3.3-6.8,7.5c0,4.2,3,7.5,6.8,7.5c2.5,0,4.7-1.4,5.9-3.7h37l42.3-46.8h37.9l-64.1,70.9h-70.2
		l-29.6,32.8H882.9L860.7,526H800l-7.4,8.2c-0.6-0.2-1.3-0.2-1.9-0.2c-1.9,0-3.6,0.7-4.9,2.1c-1.3,1.4-1.9,3.3-1.9,5.4
		c0,2.1,0.6,4,1.9,5.4c1.3,1.4,3,2.1,4.9,2.1c1.9,0,3.6-0.7,4.9-2.1c1.7-1.9,2.3-4.7,1.7-7.3l5.3-5.9H829l-38.9,43.1h-29l-26.4-29.3
		h-52c-1.3-2.3-3.4-3.7-5.9-3.7c-3.8,0-6.8,3.3-6.8,7.5c0,4.2,3,7.5,6.8,7.5c2.5,0,4.7-1.4,5.9-3.7h49.3l19.9,22h-76.3l-27.3-30.2
		H451.3L438,532.1c0.6-2.6,0-5.4-1.7-7.3c-1.3-1.4-3-2.1-4.9-2.1c-1.9,0-3.6,0.7-4.9,2.1c-1.3,1.4-1.9,3.3-1.9,5.4
		c0,2.1,0.6,4,1.9,5.4c1.3,1.4,3,2.1,4.9,2.1c0.6,0,1.3,0,1.9-0.2l15.2,16.9h146.1l-37,41H373.2l-30.7,33.9
		c-0.6-0.2-1.3-0.2-1.9-0.2c-1.9,0-3.6,0.7-4.9,2.1c-1.5,1.4-2.1,3.3-2.1,5.4c0,2.1,0.6,4,1.9,5.4c1.3,1.4,3,2.1,4.9,2.1
		c1.7,0,3.4-0.9,4.9-2.3c1.7-1.9,2.3-4.7,1.7-7.3l28.6-32.3H560l43.6-48.2h41.7l27.3,30.2h120.3l45.5-50.3h25l22.2-24.6h96.9
		l-38.5,42.6h-91.4c-1.3-2.3-3.4-3.7-5.9-3.7c-3.8,0-6.8,3.3-6.8,7.5s3,7.5,6.8,7.5c2.5,0,4.7-1.4,5.9-3.7h94.1l74.9-82.9h70.6
		l96.2-106.5h45.5l20.1,22.2c-0.6,2.6,0,5.4,1.7,7.3c1.3,1.4,3,2.1,4.9,2.1c1.9,0,3.6-0.7,4.9-2.1c1.3-1.4,1.9-3.3,1.9-5.4
		C1267.2,391.9,1266.5,390,1265.3,388.6z"/>
	<polygon class="st0" points="853.7,1147.6 919.1,1147.6 934.7,1164.8 989.9,1164.8 1003.4,1150 1251.1,1150 1251.1,1151.4 
		1003.9,1151.4 990.5,1166.3 934.1,1166.3 918.5,1149.1 854.3,1149.1 840.4,1172.9 765,1172.9 747.6,1149.3 628.4,1149.3 
		554.4,1190.9 553.4,1189.9 627.8,1147.8 748.2,1147.8 765.8,1171.4 839.9,1171.4 	"/>
	<ellipse class="st0" cx="1251.1" cy="1150.8" rx="2.7" ry="3"/>
	<path class="st0" d="M552.1,1188.2c-1,1.1-1,3,0,4.2c1,1.1,2.7,1.1,3.8,0c1-1.1,1-3,0-4.2C554.7,1187.1,553,1187.1,552.1,1188.2z"
		/>
	<polygon class="st0" points="585.1,1090.5 604.1,1090.5 628.4,1117.5 747.6,1117.5 761.2,1093.7 842.4,1093.7 854.3,1117.7 
		918.5,1117.7 934.1,1100.5 990.5,1100.5 1003.9,1115.1 1097.6,1115.1 1097.6,1116.8 1003.4,1116.8 989.9,1101.9 934.7,1101.9 
		919.1,1119.2 853.7,1119.2 841.8,1095.4 762,1095.4 748.2,1118.9 627.8,1118.9 603.5,1092.2 585.1,1092.2 	"/>
	<path class="st0" d="M1097.6,1113c1.5,0,2.7,1.3,2.7,3s-1.2,3-2.7,3c-1.5,0-2.7-1.3-2.7-3C1094.9,1114.5,1096,1113,1097.6,1113z"/>
	<path class="st0" d="M585.2,1088.4c-1.5,0-2.7,1.3-2.7,3s1.2,3,2.7,3c1.5,0,2.7-1.3,2.7-3S586.8,1088.4,585.2,1088.4z"/>
	<polygon class="st0" points="1153,1150.2 1154,1151.2 1113.5,1170.6 1019.9,1170.6 1019.9,1169.1 1112.9,1169.1 	"/>
	<path class="st0" d="M1020.1,1166.9c-1.5,0-2.7,1.3-2.7,3c0,1.7,1.2,3,2.7,3c1.5,0,2.7-1.3,2.7-3
		C1022.7,1168.2,1021.4,1166.9,1020.1,1166.9z"/>
	<polygon class="st0" points="891.9,1147.8 892.8,1148.9 854.8,1190.9 795.9,1190.9 746,1254.7 744.9,1253.6 795.4,1189.2 
		854.3,1189.2 	"/>
	<path class="st0" d="M743.7,1252.1c-1,1.1-1,3,0,4.2c1,1.1,2.7,1.1,3.8,0c1-1.1,1-3,0-4.2C746.4,1250.8,744.7,1250.8,743.7,1252.1z
		"/>
	<polygon class="st0" points="734.3,1148 735.3,1149.1 716.9,1169.5 663.3,1169.5 629.2,1207.3 594.8,1207.3 535.6,1241.1 
		534.6,1240 594.3,1205.8 628.4,1205.8 662.8,1167.8 716.3,1167.8 	"/>
	<path class="st0" d="M533.2,1238.3c-1,1.1-1,3,0,4.2c1,1.1,2.7,1.1,3.8,0c1-1.1,1-3,0-4.2C535.9,1237.2,534.2,1237.2,533.2,1238.3z
		"/>
	<polygon class="st0" points="971.1,1121.5 978.8,1130 1143.8,1130 1184.9,1150 1183.9,1151 1143.2,1131.5 978.2,1131.5 
		970.2,1122.8 	"/>
	<path class="st0" d="M972.7,1120.2c-1-1.1-2.7-1.1-3.8,0c-1,1.1-1,3,0,4.2c1,1.1,2.7,1.1,3.8,0
		C973.6,1123.2,973.6,1121.3,972.7,1120.2z"/>
	<polygon class="st0" points="705.4,1131.9 786.1,1131.9 821.8,1171.4 820.9,1172.5 785.6,1133.4 705.4,1133.4 	"/>
	<path class="st0" d="M703.6,1129.8c-1.5,0-2.7,1.3-2.7,3s1.2,3,2.7,3c1.5,0,2.7-1.3,2.7-3S705.2,1129.8,703.6,1129.8z"/>
	<polygon class="st0" points="759.9,1162.3 761,1163.5 744.3,1181.8 691,1181.8 691,1180.3 743.7,1180.3 	"/>
	<path class="st0" d="M691.2,1178.2c-1.5,0-2.7,1.3-2.7,3s1.2,3,2.7,3c1.5,0,2.7-1.3,2.7-3C693.7,1179.5,692.5,1178.2,691.2,1178.2z
		"/>
	<polygon class="st0" points="790,1094.1 826.4,1134.4 950.4,1134.4 950.4,1136.1 825.9,1135.9 789,1095.2 	"/>
	<path class="st0" d="M950.2,1138.3c1.5,0,2.7-1.3,2.7-3c0-1.7-1.2-3-2.7-3c-1.5,0-2.7,1.3-2.7,3
		C947.5,1137,948.9,1138.3,950.2,1138.3z"/>
	<path class="st0" d="M1022.9,378.6c1.8,0,3.6-2,3.6-4c0-2-1.8-4-3.6-4s-3.6,2-3.6,4C1019.3,377.1,1021.1,378.6,1022.9,378.6z"/>
	<path class="st0" d="M953.8,475.2c3.2,0,5.9-3,5.9-6.5c0-3.5-2.7-6.5-5.9-6.5c-3.2,0-5.9,3-5.9,6.5
		C947.9,472.2,950.2,475.2,953.8,475.2z"/>
	<path class="st0" d="M832.4,1044.4c0,1.7-1.2,3-2.7,3c-1.5,0-2.7-1.4-2.7-3c0-1.7,1.2-3,2.7-3
		C831.2,1041.4,832.4,1042.8,832.4,1044.4z"/>
	<path class="st0" d="M856.9,1118.4c0,1-0.5,2.5-0.5,3.5c0,11.6,8.2,20.6,18.6,20.6c10.5,0,18.6-9.1,18.6-20.6c0-4-1.4-8.1-3.2-11.6
		c0,0,0,0,0.5,0c4.1,0,7.7-4,7.7-8.6c0-0.5,0-1,0-1.5c1.8-0.5,3.6-2.5,3.6-5c0-3-2.3-5.5-5-5.5c-1.8,0-3.6,1.5-4.5,3.5
		c-0.5,0-1.4-0.5-1.8-0.5c-4.1,0-7.7,4-7.7,8.6c0,0.5,0,1,0,1.5c-2.3-1.5-5-2-8.2-2c-5,0-9.5,2.5-13.2,6c-1.4-2-3.2-3-5.5-3
		c-3.6,0-6.4,3-6.4,7C850.1,1114.9,853.8,1118.4,856.9,1118.4z"/>
	<path class="st0" d="M830.1,953.8c0,2.5-1.8,4.5-4.1,4.5c-2.3,0-4.1-2-4.1-4.5c0-2.5,1.8-4.5,4.1-4.5
		C828.3,949.3,830.1,951.3,830.1,953.8z"/>
	<path class="st0" d="M798.7,713.3c4.1,0,7.7-4,7.7-8.6c0-4.5-3.6-8.6-7.7-8.6c-4.1,0-7.7,4-7.7,8.6
		C791.5,709.2,794.7,713.3,798.7,713.3z"/>
	<path class="st0" d="M773.3,624.2c4.1,0,7.3-3.5,7.3-8.1c0-4.5-3.2-8.1-7.3-8.1c-4.1,0-7.3,3.5-7.3,8.1
		C766,620.7,769.2,624.2,773.3,624.2z"/>
	<path class="st0" d="M849.2,892.9c0,2.2-1.6,4-3.6,4c-2,0-3.6-1.8-3.6-4c0-2.2,1.6-4,3.6-4C847.6,888.9,849.2,890.7,849.2,892.9z"
		/>
	<path class="st0" d="M1022.9,586.4c0,1.5,0.9,2.5,2.3,2.5c1.4,0,2.3-1,2.3-2.5c0-1.5-1.4-2.5-2.7-2.5
		C1023.8,583.9,1022.9,584.9,1022.9,586.4z"/>
	<path class="st0" d="M912,1135c2.7,0,5-2.5,5-5.5s-2.3-5.5-4.5-5.5c-0.9-4.5-4.1-8.1-8.6-8.1c-5,0-8.6,4.5-8.6,9.6c0,0.5,0,1,0,1.5
		c-1.4,0.5-2.3,1.5-2.3,3c0,2,1.4,3,2.7,3c0.9,0,1.4-0.5,1.8-1c1.4,1.5,3.6,2.5,5.9,2.5c1.8,0,3.6-0.5,5-2
		C909.7,1134.5,910.6,1135,912,1135z"/>
	<path class="st0" d="M967.9,1119.9c-2.7,0-5,2.5-5,5.5s2.3,5.5,5,5.5c2.7,0,5-2.5,5-5.5S970.6,1119.9,967.9,1119.9z"/>
	<path class="st0" d="M949.2,1145.1c0,2,1.4,3.5,3.2,3.5c1.4,0,2.7-1,3.2-2.5c0.9,2,2.7,4,5.5,4c3.2,0,5.9-3,5.9-6.5
		c0-3.5-2.7-6.5-5.9-6.5c-3.2,0-5.5,2.5-5.9,6c-0.5-1-1.4-1.5-2.7-1.5C950.6,1141.1,949.2,1143.1,949.2,1145.1z"/>
	<path class="st0" d="M943.8,933.2c3.2,0,5.5-3,5.5-6.5c0-3.5-2.7-6-5.5-6c-3.2,0-5.5,3-5.5,6C938.3,929.7,940.6,933.2,943.8,933.2z
		"/>
	<path class="st0" d="M830.1,618.1c2.7,0,4.5-2.5,4.5-5c0-3-2.3-5-4.5-5c-2.7,0-4.5,2.5-4.5,5C825.6,616.1,827.8,618.1,830.1,618.1z
		"/>
	<path class="st0" d="M896.5,382.6c1.8,0,3.2-1.5,3.2-3.5c0-2-1.4-3.5-3.2-3.5s-3.2,1.5-3.2,3.5
		C893.3,381.1,894.7,382.6,896.5,382.6z"/>
	<path class="st0" d="M1095.2,403.7c0-3.5-2.7-6.5-5.9-6.5c-3.2,0-5.9,3-5.9,6.5c0,3.5,2.7,6.5,5.9,6.5
		C1092.5,410.3,1095.2,407.3,1095.2,403.7z"/>
	<path class="st0" d="M893.8,481.7c1.4,0,2.7-1.5,2.7-3c0-1.5-1.4-3-2.7-3c-1.4,0-2.7,1.5-2.7,3C891,480.7,892,481.7,893.8,481.7z"
		/>
	<path class="st0" d="M775.6,709.7c0,8.1-5.9,14.6-13.2,14.6c-7.3,0-13.2-6.5-13.2-14.6c0-8.1,5.9-14.6,13.2-14.6
		C769.7,695.1,775.6,701.7,775.6,709.7z"/>
	<path class="st0" d="M671.4,729.4c1.4,0,2.3-1,2.3-2.5c0-1.5-0.9-2.5-2.3-2.5c-1.4,0-2.3,1-2.3,2.5
		C669.2,728.4,670.5,729.4,671.4,729.4z"/>
	<path class="st0" d="M787.8,957.9c0-3.5-2.3-6-5.5-6c-3.2,0-5.5,2.5-5.5,6c0,0,0,0,0,0.5h-0.5c-8.2,0-15,7.5-15,16.6
		c0,9.1,6.8,16.6,15,16.6c8.2,0,15-7.5,15-16.6c0-5-2.3-9.6-5.5-12.6C786.9,960.9,787.8,959.4,787.8,957.9z"/>
	<path class="st0" d="M927,975.5c-4.1,0-7.7,4-7.7,8.6c0,4.5,3.6,8.6,7.7,8.6c3.6,0,6.4-2.5,7.3-6c0.9,0.5,1.8,0.5,3.2,0.5
		c4.1,0,7.7-4,7.7-8.6c0-4.5-3.6-8.6-7.7-8.6c-3.6,0-6.4,2.5-7.3,6.5C929.2,975.5,928.3,975.5,927,975.5z"/>
	<path class="st0" d="M854.7,688.1c2.7,0,4.5-2.5,4.5-5c0-2.5-2.3-5-4.5-5c-0.5,0-0.9,0-1.8,0.5c-0.5-5-4.1-9.6-9.1-9.6
		c-5,0-9.1,4.5-9.1,10.1c0,1,0,1.5,0.5,2.5c-2.7,1.5-4.5,4.5-5.5,8.1c-0.9-4.5-4.5-8.1-9.1-8.1c-5,0-9.5,4.5-9.5,10.6
		c0,6,4.1,10.6,9.5,10.6c4.5,0,7.7-3.5,9.1-7.5c0.9,6,5.5,10.1,10.9,10.1c0.9,0,1.8,0,2.3-0.5c0,0.5-0.5,1-0.5,1.5
		c0,3.5,2.7,6.5,5.9,6.5c0.5,0,0.9,0,1.4-0.5c0,0.5,0,0.5,0,1c0,1.5,0.5,3,1.4,4.5c-1.4,0.5-2.3,2-2.3,3.5c0,2,1.8,4,3.6,4
		c1.8,0,3.6-2,3.6-4c0-0.5,0-1-0.5-1.5c3.2,0,5.5-3,5.5-6c0-3.5-2.7-6.5-5.9-6.5c-0.5,0-0.9,0-1.4,0.5c0-0.5,0-0.5,0-1
		c0-3-2.3-5.5-5-6c1.4-2,2.3-4.5,2.3-7c0-2-0.5-4-1.4-5.5l0.5-0.5C851.5,687.1,852.9,688.1,854.7,688.1z"/>
	<path class="st0" d="M752.4,476.2c2.7,0,5-2.5,5-5.5c0-3-2.3-5.5-5-5.5c-2.7,0-5,2.5-5,5.5C747.4,473.7,749.6,476.2,752.4,476.2z"
		/>
	<path class="st0" d="M829.7,899.5c0-3.5-1.4-6.5-3.6-9.1c3.2-1,5.9-4.5,5.9-8.6c0-5-3.6-9.1-8.2-9.1c-2.7,0-5.5,1.5-6.8,4
		c0-0.5,0.5-1,0.5-1.5c0-2.5-1.8-4.5-4.1-4.5c-2.3,0-4.5,2-4.5,5c0,2.5,1.8,4.5,4.1,4.5c1.4,0,2.7-1,3.2-2c-0.5,1-0.5,2.5-0.5,3.5
		c0,2,0.5,4,1.8,5.5c-5.5,0.5-10,5.5-10,12.1c0,6.5,5,12.1,10.9,12.1C824.7,911.6,829.7,906,829.7,899.5z"/>
	<path class="st0" d="M814.7,734.4c0,5.5,4.1,9.6,8.6,9.6c4.5,0,8.6-4.5,8.6-9.6c0-5.5-4.1-9.6-8.6-9.6
		C818.8,724.8,814.7,728.9,814.7,734.4z"/>
	<path class="st0" d="M882.4,1147.1c0-2.5-1.8-4.5-4.1-4.5c-2.3,0-4.1,2-4.1,4.5c0,2.5,1.8,4.5,4.1,4.5
		C880.6,1151.1,882.4,1149.1,882.4,1147.1z"/>
	<path class="st0" d="M1006.1,1001.6c1.4,0,2.7-1.5,2.7-3c0-1.5-1.4-3-2.7-3c-1.4,0-2.7,1.5-2.7,3
		C1002.9,1000.1,1004.3,1001.6,1006.1,1001.6z"/>
	<path class="st0" d="M770.6,838.1c6.4,0,11.8-5.5,11.8-13.1c0-7-5-13.1-11.8-13.1c-6.4,0-11.8,5.5-11.8,13.1
		C758.7,832.5,764.2,838.1,770.6,838.1z"/>
	<path class="st0" d="M989.3,1153.6c0,1.5,1.4,3,2.7,3c1.4,0,2.7-1.5,2.7-3c0-1.5-1.4-3-2.7-3
		C990.6,1151.1,989.3,1152.1,989.3,1153.6z"/>
	<path class="st0" d="M932.4,829c0,1.5,1.4,3,2.7,3c1.4,0,2.7-1.5,2.7-3c0-1.5-1.4-3-2.7-3C933.8,826,932.4,827.5,932.4,829z"/>
	<path class="st0" d="M939.7,1115.4c1.4,0,2.7-1.5,2.7-3c0-1.5-1.4-3-2.7-3c-1.4,0-2.7,1.5-2.7,3
		C937,1113.9,938.3,1115.4,939.7,1115.4z"/>
	<path class="st0" d="M731,822.5c-6.8,0-12.7,6-12.7,14.1c0,7.5,5.5,14.1,12.7,14.1c6.8,0,12.7-6,12.7-14.1
		C743.3,828.5,737.8,822.5,731,822.5z"/>
	<path class="st0" d="M957.4,992.6c3.2,0,6.4-3,6.4-7c0-4-2.7-7-6.4-7c-3.2,0-6.4,3-6.4,7C951.1,989.6,953.8,992.6,957.4,992.6z"/>
	<path class="st0" d="M1077.5,248.2c1.8,0,3.2-1.5,3.2-3.5s-1.4-3.5-3.2-3.5c-1.8,0-3.2,1.5-3.2,3.5S1075.6,248.2,1077.5,248.2z"/>
	<path class="st0" d="M690.1,880.4c-7.3,0-13.2,6.5-13.2,14.6c0,8.1,5.9,14.6,13.2,14.6c7.3,0,13.2-6.5,13.2-14.6
		C703.3,886.4,697.4,880.4,690.1,880.4z"/>
	<path class="st0" d="M921.5,543.1c0,7,5,12.1,10.9,12.1c6.4,0,10.9-5.5,10.9-12.1c0-7-5-12.1-10.9-12.1
		C926.5,531.1,921.5,536.6,921.5,543.1z"/>
	<path class="st0" d="M1097,247.2c2.3,0,3.6-2,3.6-4c0-2.5-1.8-4-3.6-4c-1.8,0-3.6,2-3.6,4C1093.4,245.2,1094.7,247.2,1097,247.2z"
		/>
	<path class="st0" d="M703.7,784.7c0,4.7-3.5,8.6-7.7,8.6c-4.3,0-7.7-3.8-7.7-8.6c0-4.7,3.5-8.6,7.7-8.6
		C700.3,776.2,703.7,780,703.7,784.7z"/>
	<path class="st0" d="M977.9,467.7c0,1.5,0.9,3,2.7,3c1.4,0,2.7-1,2.7-3c0-1.5-0.9-3-2.7-3C978.8,465.1,977.9,466.1,977.9,467.7z"/>
	<path class="st0" d="M956.5,486.8c0,0.5,0,1,0,1.5c-1.8,2.5-3.2,5.5-3.2,9.1c0,4,1.8,7.5,4.1,10.6c0.9,2.5,3.2,4.5,5.9,4.5
		c0.9,0,1.8-0.5,2.7-1c5.9,0,10.5-4.5,11.8-10.6c4.5-3,7.7-8.1,7.7-14.1c0-9.1-6.8-16.1-14.5-16.1
		C963.3,470.7,956.5,477.7,956.5,486.8z"/>
	<path class="st0" d="M783.3,943.8c1.8,0,3.6-1.5,3.6-4c0-2-1.8-4-3.6-4c-1.8,0-3.6,1.5-3.6,4C779.7,941.8,781.5,943.8,783.3,943.8z
		"/>
	<path class="st0" d="M791.5,919.1c-4.5,0-7.7,4-7.7,8.6c0,4.5,3.6,8.6,7.7,8.6c4.5,0,7.7-4,7.7-8.6
		C799.2,923.1,795.6,919.1,791.5,919.1z"/>
	<path class="st0" d="M1039.7,351.9c5.5,0,10-5,10-11.1c0-6-4.5-11.1-10-11.1s-10,5-10,11.1C1029.7,346.9,1034.3,351.9,1039.7,351.9
		z"/>
	<path class="st0" d="M982,509.4c0,2.5,1.8,4.5,4.1,4.5c2.3,0,4.1-2,4.1-4.5c0-2.5-1.8-4.5-4.1-4.5C983.3,505.4,982,507.4,982,509.4
		z"/>
	<path class="st0" d="M918.8,463.1c5.9,0,10.5-5,10.5-11.6c0-6.5-4.5-11.6-10.5-11.6c-5.9,0-10.5,5-10.5,11.6
		C908.3,458.1,912.9,463.1,918.8,463.1z"/>
	<path class="st0" d="M841,661.9c2.7,0,4.5-2.5,4.5-5c0-3-2.3-5-4.5-5c-2.7,0-4.5,2.5-4.5,5C836.5,659.4,838.8,661.9,841,661.9z"/>
	<ellipse class="st0" cx="1040.6" cy="440" rx="5.5" ry="6"/>
	<path class="st0" d="M1036.5,463.6c4.1,0,7.7-4,7.7-8.6c0-4.5-3.2-8.6-7.7-8.6c-4.1,0-7.7,3.5-7.7,8.6
		C1029.3,459.6,1032.5,463.6,1036.5,463.6z"/>
	<path class="st0" d="M872,725.8c-5,0-8.6,4.5-8.6,9.6c0,4,2.3,7.5,5.5,9.1c-1.4,2-1.8,4-1.8,6.5c0,0.5,0,0.5,0,0.5
		c-2.3,2-3.6,5-3.6,8.6c0,6.5,4.5,11.6,10.5,11.6c5.9,0,10.5-5,10.5-11.6c0-0.5,0-1,0-2c0.9-1,1.4-2,1.8-3.5c0.9,1,2.3,1.5,3.2,1.5
		c2.7,0,5-2.5,5-5.5s-2.3-5.5-5-5.5c-1.4,0-2.3,0.5-3.2,1.5c-1.4-3.5-3.6-6-6.8-6.5c0.5-1.5,0.9-3,0.9-4.5
		C880.6,730.4,876.5,725.8,872,725.8z"/>
	<path class="st0" d="M776,650.9c0-3-2.3-5.5-5-5.5c-2.7,0-5,2.5-5,5.5c0,3,2.3,5.5,5,5.5C773.7,656.4,776,653.9,776,650.9z"/>
	<path class="st0" d="M930.6,1144.6c0,2.5,1.8,4,3.6,4c2.3,0,3.6-2,3.6-4c0.5,1,1.8,1.5,2.7,1.5c1.8,0,3.6-2,3.6-4
		c0-2-1.4-4.5-3.6-4.5c-1.8,0-3.6,2-3.6,4c-0.9-1-1.8-1.5-2.7-1.5C932,1140.1,930.6,1142.1,930.6,1144.6z"/>
	<ellipse class="st0" cx="742.8" cy="654.9" rx="14.5" ry="16.1"/>
	<path class="st0" d="M913.8,619.1c6.4,0,11.8-5.5,11.8-13.1c0-6-3.6-11.1-8.6-12.6c-2.3-3-5.9-4.5-9.5-4.5
		c-7.3,0-13.2,6.5-13.2,14.6c0,4,1.4,7.5,3.6,10.1c-2.3,1.5-4.1,4-4.1,7c0,4.5,3.2,8.1,7.3,8.1c4.1,0,7.3-3.5,7.3-8.1
		c0-1,0-2-0.5-2.5c0.5,0,0.9,0,1.8,0C911.1,618.6,912.4,619.1,913.8,619.1z"/>
	<ellipse class="st0" cx="821.5" cy="662.9" rx="5.5" ry="6"/>
	<path class="st0" d="M685.5,826c0-5-3.6-8.6-7.7-8.6c-4.5,0-7.7,4-7.7,8.6c0,5,3.6,8.6,7.7,8.6C681.9,835.1,685.5,831,685.5,826z"
		/>
	<path class="st0" d="M852.4,876.8c0-4.5-3.2-7.5-6.8-7.5c-3.6,0-6.8,3.5-6.8,7.5c0,4.5,3.2,7.5,6.8,7.5
		C849.2,884.4,852.4,881.4,852.4,876.8z"/>
	<path class="st0" d="M1005.2,528.6c0-0.5,0-1,0-1.5c0,0,0,0,0.5,0C1005.6,527,1005.2,528,1005.2,528.6z M1020.6,495.8
		c0.9-1,1.4-2.5,1.4-4.5c0-4-3.2-7.5-6.8-7.5c-3.6,0-6.8,3.5-6.8,7.5c0,0.5,0,1,0,1.5c-7.3,1.5-12.7,8.6-12.7,17.1
		c0,3,0.9,6,2.3,8.6c-0.5,0-0.5,0-0.9,0c-4.5,0-8.6,4-8.6,9.6c0,5.5,3.6,9.6,8.6,9.6c4.1,0,7.7-3.5,8.2-8.1
		c0,10.6,7.7,19.1,17.3,19.1c9.5,0,17.3-8.6,17.3-19.1c0-4-0.9-7.5-2.7-10.6c1.8,2,4.5,3.5,7.3,3.5c5.5,0,9.5-4.5,10.5-10.1
		c0.9,0.5,1.8,1,2.7,1c3.2,0,5.5-2.5,5.5-6c0-3.5-2.3-6-5.5-6c-1.8,0-3.6,1-4.5,3c-1.8-3-5-5-8.6-5c-5.9,0-10.5,5-10.5,11.6
		c0,2,0.5,4,1.4,6c-2.3-2.5-5-4.5-8.2-5.5v-0.5C1027.5,504.4,1024.7,499.4,1020.6,495.8z"/>
	<path class="st0" d="M893.3,923.1c0,2.2-1.6,4-3.6,4c-2,0-3.6-1.8-3.6-4c0-2.2,1.6-4,3.6-4C891.7,919.1,893.3,920.9,893.3,923.1z"
		/>
	<path class="st0" d="M950.6,523.5c2.3,0,4.1-2,4.1-4.5c0-2.5-1.8-4.5-4.1-4.5c-2.3,0-4.1,2-4.1,4.5
		C947,521.5,948.8,523.5,950.6,523.5z"/>
	<path class="st0" d="M813.3,593.5c0.9,0,2.3-0.5,3.2-1c2.7,6,8.2,10.1,14.5,10.1c9.1,0,16.4-8.1,16.4-18.1
		c0-9.1-5.9-16.1-13.6-17.6c0.5-1,0.5-2,0.5-3.5c0-8.1-5.9-14.1-12.7-14.1c-7.3,0-12.7,6.5-12.7,14.1c0,6,3.2,11.1,8.2,13.1
		c0,0.5-0.5,1-0.5,1.5c-0.9-0.5-1.4-0.5-2.3-0.5c-4.1,0-7.3,3.5-7.3,8.1C806,590,809.2,593.5,813.3,593.5z"/>
	<ellipse class="st0" cx="866" cy="1165.2" rx="11.8" ry="13.1"/>
	<path class="st0" d="M994.3,1026.8c0-2.5-1.8-4-3.6-4c-1.8,0-3.6,2-3.6,4c0,2,1.8,4,3.6,4C992.4,1030.8,994.3,1029.3,994.3,1026.8z
		"/>
	<path class="st0" d="M787.8,885.4c0-4.5-3.2-8.1-7.3-8.1c-4.1,0-7.3,3.5-7.3,8.1c0,4.5,3.2,8.1,7.3,8.1
		C784.7,893.4,787.8,889.9,787.8,885.4z"/>
	<path class="st0" d="M873.3,561.3c0,3.1-2.2,5.5-5,5.5c-2.8,0-5-2.5-5-5.5c0-3.1,2.2-5.5,5-5.5
		C871.1,555.7,873.3,558.2,873.3,561.3z"/>
	<path class="st0" d="M884.2,530.1c0,2.5-1.8,4.5-4.1,4.5c-2.3,0-4.1-2-4.1-4.5c0-2.5,1.8-4.5,4.1-4.5
		C882.4,525.5,884.2,527.6,884.2,530.1z"/>
	<path class="st0" d="M741.5,919.1c0,10.8-7.9,19.6-17.7,19.6c-9.8,0-17.7-8.8-17.7-19.6c0-10.8,7.9-19.6,17.7-19.6
		C733.5,899.5,741.5,908.3,741.5,919.1z"/>
	<path class="st0" d="M778.3,770.1c0.5-1,0.5-2,0.5-3.5c0-6-4.5-10.6-9.5-10.6h-0.5c-1.8-2-3.6-3-6.4-3c-5,0-8.6,4.5-8.6,9.6
		c0,4.5,3.2,8.6,7.3,9.6c1.4,2.5,3.6,4,5.9,5c-1.4,2.5-2.3,5-2.3,8.1c0,8.6,6.4,15.1,13.6,15.1c7.7,0,13.6-7,13.6-15.1
		C792.4,777.2,786,770.1,778.3,770.1z"/>
	<path class="st0" d="M958.8,1119.9c0-1.5-0.9-2.5-2.3-2.5c-1.4,0-2.3,1-2.3,2.5c0,1.5,0.9,2.5,2.3,2.5
		C957.9,1122.4,958.8,1121.4,958.8,1119.9z"/>
	<path class="st0" d="M935.2,945.3c2.7,0,5-2.5,5-5.5c0-3-2.3-5.5-5-5.5c-0.5,0-0.9,0-1.4,0.5c1.8-1.5,2.7-4,2.7-7
		c0-5-3.6-9.6-8.6-9.6c-1.4,0-2.7,0.5-3.6,1c-1.4-2.5-3.2-4-5.5-5h0.5c1.4,0,2.3-1,2.3-2.5c0-1.5-0.9-2.5-2.3-2.5
		c-1.4,0-2.3,1-2.3,2.5c0,1,0.5,2,1.4,2.5c-0.5,0-1.4-0.5-1.8-0.5c-5,0-9.1,4.5-9.1,10.1c0,5.5,4.1,10.1,9.1,10.1
		c1.4,0,3.2-0.5,4.5-1.5c1.4,2.5,4.1,4.5,7.3,4.5c0.9,0,2.3-0.5,3.2-0.5c-0.9,1-1.4,2-1.4,3.5C930.2,942.8,932.4,945.3,935.2,945.3z
		"/>
	<path class="st0" d="M993.8,427.4c-5.5,0-9.5,4.5-9.5,10.6c0,3.5,1.8,7,4.5,9.1c-0.5,1-0.5,1.5-0.5,2.5c0,5,3.6,9.1,8.2,9.1
		c1.8,0,3.2-0.5,4.5-1.5c0.9,6,5.5,11.1,11.4,11.1c6.4,0,11.8-6,11.8-13.1c0-7-5-13.1-11.8-13.1c-3.2,0-5.9,1.5-8.2,3.5
		c-0.5-1.5-1.4-2.5-1.8-3.5c0.9-1.5,0.9-3,0.9-5C1003.4,432.4,998.8,427.4,993.8,427.4z"/>
	<path class="st0" d="M990.6,363.5c9.1,0,16.8-8.1,16.8-18.6c0-10.1-7.3-18.6-16.8-18.6c-9.1,0-16.8,8.1-16.8,18.6
		C973.8,355.4,981.5,363.5,990.6,363.5z"/>
	<path class="st0" d="M922,632.7c3.2,0,5.9-3,5.9-6.5c0-3.5-2.7-6.5-5.9-6.5c-3.2,0-5.9,3-5.9,6.5
		C916.1,629.7,918.8,632.7,922,632.7z"/>
	<path class="st0" d="M1111.1,555.2c3.6,0,6.8-3.5,6.8-7.5c0-4-3.2-7.5-6.8-7.5c-3.6,0-6.8,3.5-6.8,7.5
		C1104.3,551.7,1107,555.2,1111.1,555.2z"/>
	<path class="st0" d="M950.6,427.4c5.5,0,10.5-5,10.5-11.6c0-6.5-4.5-11.6-10.5-11.6c-5.5,0-10.5,5-10.5,11.6
		C940.2,422.4,945.2,427.4,950.6,427.4z"/>
	<ellipse class="st0" cx="685.1" cy="660.4" rx="20" ry="22.1"/>
	<path class="st0" d="M1022,930.2c1.8,0,3.6-2,3.6-4s-1.8-4-3.6-4c-2.3,0-3.6,2-3.6,4C1017.9,928.2,1019.7,930.2,1022,930.2z"/>
	<path class="st0" d="M941.5,570.3c-1.8,0-3.2,1.5-3.2,3.5c0,2,1.4,3.5,3.2,3.5s3.2-1.5,3.2-3.5
		C944.2,571.8,942.9,570.3,941.5,570.3z"/>
	<path class="st0" d="M822.8,638.3c0,2.5,1.8,4,3.6,4c2.3,0,3.6-2,3.6-4c0-2-1.8-4-3.6-4C824.7,633.7,822.8,635.8,822.8,638.3z"/>
	<path class="st0" d="M716.9,692.6c2.7,0,4.5-2.5,4.5-5c0-2.5-2.3-5-4.5-5c-2.3,0-4.5,2.5-4.5,5
		C712.4,690.1,714.2,692.6,716.9,692.6z"/>
	<path class="st0" d="M721.5,642.3c1.8,0,3.2-1.5,3.2-3.5c0-2-1.4-3.5-3.2-3.5c-1.8,0-3.2,1.5-3.2,3.5
		C718.3,640.8,719.6,642.3,721.5,642.3z"/>
	<path class="st0" d="M967.4,947.3c5.5,0,9.5-4.5,10.5-10.1c1.4-1.5,2.3-3.5,2.3-6c0-4.5-3.6-8.6-7.7-8.6c-1.8,0-3.2,0.5-4.5,1.5
		h-0.5c-5.9,0-10.5,5-10.5,11.6C957,942.3,962,947.3,967.4,947.3z"/>
	<path class="st0" d="M847.4,1028.3c-2.3,1.5-4.1,4.5-4.1,7.5c0,5,3.6,8.6,7.7,8.6c0.9,0,1.8,0,2.7-0.5c2.7,2,5.9,3.5,9.5,3.5
		c8.6,0,15.9-8.1,15.9-17.6c0-3-0.9-6-2.3-8.6c0.5,0,0.9-0.5,1.8-0.5c1.4,10.1,9.1,17.6,18.2,17.6c7.7,0,14.5-5.5,17.3-13.1
		c0.9,0,1.4-0.5,1.8-0.5c0.9,1.5,2.3,2.5,4.1,2.5c2.7,0,5-2.5,5-5.5c0-2-0.9-4-2.7-4.5c1.8-1,3.2-3,3.2-5.5c0-3-2.3-5.5-5-6
		c-1.8-2.5-4.1-4.5-7.3-5c0.5-0.5,0.5-1,0.5-1.5c0-2-1.4-3.5-3.2-3.5c-1.8,0-3.2,1.5-3.2,3.5c0,1,0.5,1.5,0.5,2
		c-0.5,0-0.5,0-0.9,0.5c-2.3-1.5-4.5-3-7.3-3.5c-1.4-2.5-4.1-4-6.8-4c-3.2,0-5.9,2-7.3,5c-2.3-5-7.3-9.1-12.7-9.1
		c-7.7,0-14.5,7-14.5,16.1c0,2.5,0.5,4.5,1.4,7C853.3,1014.2,847.9,1020.3,847.4,1028.3z"/>
	<path class="st0" d="M843.8,1070.6c0-2.5-1.8-4.5-4.1-4.5c-2.3,0-4.1,2-4.1,4.5c0,2.5,1.8,4.5,4.1,4.5
		C841.9,1074.6,843.8,1072.6,843.8,1070.6z"/>
	<path class="st0" d="M1041.5,476.2c0,3.5,1.8,6,4.1,7.5c0.5,6.5,5.5,12.1,11.4,12.1c6.4,0,11.4-5.5,11.4-12.6c0-7-5-12.6-11.4-12.6
		c-0.9,0-1.8,0-2.7,0.5c-1.4-1.5-3.2-2.5-5.5-2.5C1045.2,468.2,1041.5,471.7,1041.5,476.2z"/>
	<path class="st0" d="M911.5,985.5c0-2-1.4-3.5-3.2-3.5s-3.2,1.5-3.2,3.5s1.4,3.5,3.2,3.5S911.5,987.6,911.5,985.5z"/>
	<path class="st0" d="M629.2,730.4c-3.6,0-6.8,3.5-6.8,7.5s3.2,7.5,6.8,7.5c3.6,0,6.8-3.5,6.8-7.5S632.8,730.4,629.2,730.4z"/>
	<path class="st0" d="M939.2,817.9c2.7,0,5-2.5,5-5.5c0-3-2.3-5.5-5-5.5c-2.7,0-5,2.5-5,5.5C934.2,815.4,936.5,817.9,939.2,817.9z"
		/>
	<path class="st0" d="M1047.5,412.3c0-4-2.7-7-6.4-7c-3.6,0-6.4,3-6.4,7c0,4,2.7,7,6.4,7C1044.7,419.3,1047.5,415.8,1047.5,412.3z"
		/>
	<path class="st0" d="M775.1,660.9c-3.2,0-5.5,2.5-5.5,6c0,3.5,2.3,6,5.5,6c3.2,0,5.5-2.5,5.5-6
		C780.6,663.4,778.3,660.9,775.1,660.9z"/>
	<path class="st0" d="M773.7,858.2c0-2-1.4-4-3.6-4c-1.8,0-3.6,1.5-3.6,4c0,2,1.4,4,3.6,4C772.4,861.7,773.7,860.2,773.7,858.2z"/>
	<path class="st0" d="M947.4,1128c-2.7,0-4.5,2.5-4.5,5c0,2.5,2.3,5,4.5,5c2.7,0,4.5-2.5,4.5-5C952,1130.5,950.2,1128,947.4,1128z"
		/>
	<path class="st0" d="M1007,554.2c0,4,2.7,7,6.4,7c3.6,0,6.4-3,6.4-7s-2.7-7-6.4-7C1010.2,547.2,1007,550.7,1007,554.2z"/>
	<path class="st0" d="M941.5,615.1c0-4-3.2-7.5-6.8-7.5c-3.6,0-6.8,3.5-6.8,7.5c0,4,3.2,7.5,6.8,7.5
		C938.3,622.7,941.5,619.1,941.5,615.1z"/>
	<path class="st0" d="M744.2,896c-2.3,0-4.1,2-4.1,4.5c0,2.5,1.8,4.5,4.1,4.5c2.3,0,4.1-2,4.1-4.5C748.3,897.5,746.5,896,744.2,896z
		"/>
	<ellipse class="st0" cx="823.3" cy="714.8" rx="5.5" ry="6"/>
	<ellipse class="st0" cx="953.3" cy="673.5" rx="5.5" ry="6"/>
	<path class="st0" d="M706.9,599c2.7,0,5.5-2.5,5.5-6c0-3-2.3-6-5.5-6c-2.7,0-5.5,2.5-5.5,6C701.9,596.5,704.2,599,706.9,599z"/>
	<path class="st0" d="M988.8,856.2c-2.3,0-4.5,2-4.5,5c0,3,1.8,5,4.5,5c2.7,0,4.5-2,4.5-5C993.3,858.2,991.1,856.2,988.8,856.2z"/>
	<ellipse class="st0" cx="832.4" cy="500.4" rx="13.6" ry="15.1"/>
	<ellipse class="st0" cx="993.3" cy="1141.6" rx="2.7" ry="3"/>
	<path class="st0" d="M1073.4,408.8c0-3.5-2.7-6.5-5.9-6.5c-3.2,0-5.9,3-5.9,6.5c0,3.5,2.7,6.5,5.9,6.5
		C1070.6,415.3,1073.4,412.3,1073.4,408.8z"/>
	<ellipse class="st0" cx="802.8" cy="754" rx="5.5" ry="6"/>
	<ellipse class="st0" cx="970.6" cy="1139.5" rx="3.6" ry="4"/>
	<path class="st0" d="M880.1,1199.4c0,2,1.4,3.5,3.2,3.5c1.8,0,3.2-1.5,3.2-3.5c0-2-1.4-3.5-3.2-3.5
		C881.5,1195.9,880.1,1197.4,880.1,1199.4z"/>
	<path class="st0" d="M961.1,635.8c0-2-1.4-3.5-3.2-3.5c-1.8,0-3.2,1.5-3.2,3.5c0,2,1.4,3.5,3.2,3.5
		C959.7,638.8,961.1,637.3,961.1,635.8z"/>
	<path class="st0" d="M765.1,805.9c0-4-3.2-7.5-6.8-7.5c-3.6,0-6.8,3.5-6.8,7.5c0,4,3.2,7.5,6.8,7.5
		C761.9,813.4,765.1,809.9,765.1,805.9z"/>
	<path class="st0" d="M801.9,1023.8c-1.4,0-2.7,1.5-2.7,3c0,1.5,1.4,3,2.7,3c1.4,0,2.7-1.5,2.7-3
		C804.7,1025.3,803.3,1023.8,801.9,1023.8z"/>
	<path class="st0" d="M949.2,1000.6c0,2,1.4,4,3.6,4c0.5,0,0.5,0,0.9,0c0.9,2.5,3.2,4.5,5.9,4.5c3.6,0,6.4-3,6.4-7c0-4-2.7-7-6.4-7
		c-1.8,0-3.6,1-5,2.5c-0.5-0.5-1.4-0.5-1.8-0.5C951.1,996.6,949.2,998.6,949.2,1000.6z"/>
	<path class="st0" d="M999.7,739.9c0-1.5-0.9-2.5-2.3-2.5c-1.4,0-2.3,1-2.3,2.5c0,1.5,0.9,2.5,2.3,2.5
		C998.8,743,999.7,741.4,999.7,739.9z"/>
	<path class="st0" d="M917,1243.2v-0.5c0.5,0,0.5,0.5,0.9,0.5C917.4,1243.2,917.4,1243.2,917,1243.2z M923.8,1212
		c-2.3,0-4.5,0.5-6.4,1.5c-1.8-1-4.1-2-6.8-2c-0.5,0-0.9,0-0.9,0c0.9-1,1.4-2.5,1.4-4c0-3-2.3-5.5-5-5.5c-2.7,0-5,2.5-5,5.5
		c0,2.5,1.8,4.5,3.6,5.5c-3.6,2-6.4,5.5-7.7,10.1c-0.5,0-1.4-0.5-1.8-0.5c0,0,0-0.5-0.5-0.5c2.3-1.5,3.6-4,3.6-7.5
		c0-4.5-3.6-8.6-7.7-8.6c-4.1,0-7.7,4-7.7,8.6c0,0.5,0,1.5,0,2c-4.5,1-7.7,5.5-7.7,11.1c0,5.5,3.6,10.6,8.6,11.1
		c0.9,2.5,2.3,4.5,4.5,5.5c0,0.5,0,1,0,1.5c0,7,5,12.6,11.4,12.6c5.5,0,10-4.5,10.9-10.1h0.5c-0.5,1-0.9,2-0.9,3
		c-0.5,0.5-0.5,1-0.5,2c0,1,0.5,1.5,0.5,2.5c0.9,4.5,4.5,7.5,9.1,7.5c5,0,9.5-4.5,9.5-10.6c0-3.5-1.8-7-4.5-8.6
		c7.7-0.5,14.1-7.5,14.1-16.1C938.8,1219.6,932,1212,923.8,1212z"/>
	<path class="st0" d="M938.3,665.4c3.2,0,5.5-2.5,5.5-6c0-3.5-2.3-6-5.5-6c-3.2,0-5.5,2.5-5.5,6
		C932.4,662.4,935.2,665.4,938.3,665.4z"/>
	<path class="st0" d="M858.8,646.3c0-1.5-1.4-3-2.7-3c-1.4,0-2.7,1.5-2.7,3c0,1.5,1.4,3,2.7,3C857.4,649.3,858.8,648.3,858.8,646.3z
		"/>
	<path class="st0" d="M994.7,471.7c-3.6,0-6.8,3.5-6.8,7.5c0,4,3.2,7.5,6.8,7.5c3.6,0,6.8-3.5,6.8-7.5
		C1002,475.2,998.8,471.7,994.7,471.7z"/>
	<path class="st0" d="M811.5,841.6c0,4.5,3.2,8.1,7.3,8.1c4.1,0,7.3-3.5,7.3-8.1c0-2-0.5-3.5-1.4-4.5c6.4-2.5,10.9-9.1,10.9-17.1
		c0-4-1.4-8.1-3.6-11.1c0.5-1.5,0.5-3,0.5-4.5c0-1.5,0-2.5-0.5-4c0.5,0,1.4,0,1.8,0c7.3,0,13.2-5.5,14.5-13.1c1.4,0.5,2.7,1,4.1,1
		c7.3,0,12.7-6.5,12.7-14.1c0-7.5-5.9-14.1-12.7-14.1c-0.9,0-2.3,0-3.2,0.5c-0.5-4-3.6-6.5-7.3-6.5c-4.1,0-7.7,3.5-7.7,8.6
		c0,2,0.9,4,1.8,5.5c-0.9,0-1.8-0.5-2.7-0.5c-2.7,0-5,1-7.3,2c-2.7-5-7.3-9.1-13.2-9.1c-8.2,0-15,7.5-15,16.6c0,4,1.4,7.5,3.6,10.6
		c-4.5,4-7.3,9.6-7.3,16.1c0,1,0,1.5,0,2c-0.9-0.5-1.8-1-2.7-1c-2.7,0-5.5,2.5-5.5,6c0,3,2.3,6,5.5,6c1.4,0,2.7-0.5,3.6-1.5
		c0.9,4,3.6,7.5,7.3,9.1c1.4,6,5,10.6,10,12.6C811.9,838.1,811.5,839.6,811.5,841.6z"/>
	<path class="st0" d="M893.3,1182.8c5.9,0,10.5-5,10.5-11.6c0-6.5-4.5-11.6-10.5-11.6c-3.6,0-7.3,2.5-9.1,5.5c0,0,0,0-0.5,0
		c-3.2,0-5.9,3-5.9,6.5c0,3.5,2.7,6.5,5.9,6.5c0.5,0,0.9,0,1.4-0.5C887.4,1181.3,890.1,1182.8,893.3,1182.8z"/>
	<path class="st0" d="M853.8,614.1c-2.3,0.5-3.6,3-3.6,5.5c0,3,2.3,5.5,5,5.5s5-2.5,5-5.5c0-1-0.5-2-0.5-2.5c0.5,0,1.4,0,1.8,0
		c7.3,0,13.2-6.5,13.2-14.6c0-8.1-5.9-14.6-13.2-14.6c-7.3,0-13.2,6.5-13.2,14.6C848.3,607.6,850.6,611.6,853.8,614.1z"/>
	<path class="st0" d="M766.5,873.8c-2.7,0-5,2.5-5,5.5s2.3,5.5,5,5.5c2.7,0,5-2.5,5-5.5C771,876.3,769.2,873.8,766.5,873.8z"/>
	<path class="st0" d="M945.2,688.6c0,4.5,3.2,8.6,7.7,8.6c3.2,0,5.9-2,6.8-5c2.7-0.5,4.5-2.5,4.5-5.5c0-3-2.3-5.5-5-5.5
		c-0.9,0-1.8,0.5-2.7,1c-0.9-0.5-2.3-1-3.6-1C948.8,680,945.2,683.6,945.2,688.6z"/>
	<path class="st0" d="M710.1,784.2c0-1.5-1.4-3-2.7-3c-1.4,0-2.7,1.5-2.7,3c0,1.5,1.4,3,2.7,3C708.7,787.2,710.1,785.7,710.1,784.2z
		"/>
	<path class="st0" d="M896.5,531.6c-2.3,0-4.1,2-4.1,4.5c0,2.5,1.8,4.5,4.1,4.5c0.9,0,1.8-0.5,2.7-1c1.4,2,3.6,3.5,5.9,3.5
		c4.1,0,7.3-3.5,7.3-8.1c0-4.5-3.2-8.1-7.3-8.1c-3.2,0-5.9,2.5-7.3,5.5C897.4,531.6,897,531.6,896.5,531.6z"/>
	<path class="st0" d="M851,829c0,7,5,12.6,11.4,12.6c6.4,0,11.4-5.5,11.4-12.6c0-7-5-12.6-11.4-12.6C856,816.4,851,822,851,829z"/>
	<path class="st0" d="M996.1,407.3c0,7,5,12.6,11.4,12.6c6.4,0,11.4-5.5,11.4-12.6c0-7-5-12.6-11.4-12.6
		C1001.1,394.2,996.1,400.2,996.1,407.3z"/>
	<path class="st0" d="M700.5,744c0,4.4-3.3,8.1-7.3,8.1c-4,0-7.3-3.6-7.3-8.1c0-4.4,3.3-8.1,7.3-8.1
		C697.3,735.9,700.5,739.5,700.5,744z"/>
	<path class="st0" d="M927.4,671.5c2.7,0,4.5-2,4.5-5c0-3-1.8-5-4.5-5c-2.7,0-4.5,2-4.5,5C922.9,669.5,924.7,671.5,927.4,671.5z"/>
	<path class="st0" d="M853.3,1085.2c0-4.5-3.6-8.6-7.7-8.6c-4.1,0-7.7,4-7.7,8.6c0,4.5,3.6,8.6,7.7,8.6
		C849.7,1093.8,853.3,1089.7,853.3,1085.2z"/>
	<path class="st0" d="M909.7,745c0,3.1-2.2,5.5-5,5.5c-2.8,0-5-2.5-5-5.5c0-3.1,2.2-5.5,5-5.5C907.5,739.4,909.7,741.9,909.7,745z"
		/>
	<path class="st0" d="M1055.2,1140.1c0-0.5-0.5-0.5-0.5-1c0.5,0,0.5,0,0.9,0c0.5,0,0.5,0,0.9,0
		C1055.6,1139,1055.2,1139.5,1055.2,1140.1z M1043.8,865.3c-1.8-1.5-4.5-2.5-6.8-2.5c-0.5,0-1.4,0-1.8,0c-0.5-0.5-0.9-1-1.4-1.5
		c1.4-1.5,1.8-3.5,1.8-5.5s-0.9-4-1.8-6c1.8,1,4.1,1.5,6.4,1.5c2.7,0,5-1,7.3-2.5c1.8,0,3.6-0.5,5.5-1.5c0.5,1,1.4,1.5,2.3,1.5
		c1.8,0,3.2-1.5,3.2-3.5c0-0.5,0-1-0.5-1.5c0.9-1,1.8-2,2.3-3c0.9,1,2.3,1.5,3.6,1.5c0.5,0,0.9,0,1.4-0.5c-0.5,1.5-0.9,3-0.9,4.5
		v0.5c-2.3,2.5-4.1,5-5.5,8.6c-0.9-1-2.3-1.5-3.6-1.5c-3.2,0-5.5,2.5-5.5,6c0,1,0.5,2,0.9,3c-0.9-0.5-1.8-1-2.7-1
		C1046.5,862.7,1044.7,863.7,1043.8,865.3z M1030.6,817.4c-2.7,1-5,3-5.9,6c-1.4-0.5-2.7-1-4.5-1c-8.6,0-15.9,8.1-15.9,17.6
		c0,2.5,0.5,5,1.4,7c-4.5,0.5-7.7,4.5-7.7,9.1c0,3,1.4,6,3.6,7.5c-1.8,1.5-2.7,4-2.7,6.5c0,3.5,1.8,6.5,5,8.1c0.5,2.5,2.3,4.5,4.5,5
		c-3.6,2-6.8,5.5-7.7,10.1c-0.5,0-0.9,0-1.4,0.5c0-1-0.5-2-0.9-3c0.5-0.5,0.5-1,0.9-2c1.8-1,3.2-3.5,3.2-6c0-3-1.8-5.5-4.1-6.5
		c-0.9-2-2.7-4-4.5-5.5c-1.8-2.5-4.5-4-7.7-4c-4.1,0-7.7,2.5-9.1,6.5c-0.5,1-1.4,1.5-1.8,2.5c-5,0-9.5,4-10.9,9.1c0-0.5,0-1-0.5-1.5
		c0-0.5,0-0.5,0-1c0-3-0.9-6-2.3-8.1c5.5-2,10-7.5,10-14.6c0-6-3.2-10.6-7.3-13.1v-0.5c0.9-0.5,1.4-1,1.8-2c0.5,0,0.9,0.5,1.4,0.5
		c-0.5,0.5-0.5,1-0.5,1.5c0,1.5,1.4,3,2.7,3c0.5,0,0.9,0,0.9,0c0.9,0.5,1.8,1,2.7,1c2.7,0,5-2.5,5-5.5c0-0.5,0-1.5-0.5-2
		c1.4-1,2.7-2.5,4.1-4c1.4,1.5,3.6,2.5,5.9,2.5c3.6,0,6.8-2.5,7.7-5.5c0.5,0.5,0.9,1,1.8,1c1.4,0,2.3-1,2.3-2.5
		c0-1.5-0.9-2.5-2.3-2.5c-0.5,0-0.9,0-0.9,0.5c0-1,0-2-0.5-2.5c0.5-1,0.9-2.5,0.9-3.5c0-3-1.4-5.5-3.2-7c1.8-0.5,3.6-2,4.5-4
		c0.5,0,0.9,0,0.9-0.5c1.8,4,5.9,7,10,7c6.4,0,11.4-5.5,11.4-12.6c0-1.5-0.5-2.5-0.5-3.5c1.4,1,2.7,1.5,4.5,1.5
		c-0.5,0.5-0.5,1.5-0.5,2c0,2,1.8,4,3.6,4c1.8,0,3.6-2,3.6-4c0-1-0.5-2-1.4-3c2.3-1,4.1-3,5.5-5.5c0.9,1,2.3,1.5,3.6,1.5
		c0.9,0,1.8-0.5,2.7-1c0,0,0.5,0,0.5,0.5c0.5,3,2.3,5,5,5c2.3,0,3.6-1.5,4.5-3.5c0.9,0,1.8-0.5,2.3-0.5c0.9,2,2.7,3.5,5,3.5
		c0.5,0,0.9,0,1.4-0.5c0.5,0.5,0.9,1,1.4,2c0,0.5,0,1,0,1.5c0,5,3.6,9.1,8.2,9.1c1.8,0,3.6-1,5-2c0.5,0.5,1.4,1,2.3,1.5
		c0.9,2,2.7,3.5,4.5,4c-0.9,0.5-1.4,1.5-1.8,2.5c-0.5,0-0.9,0-0.9,0c-1.8,0-3.6,0.5-5,1c-0.5-0.5-1.4-1-2.3-1
		c-0.5,0-1.4,0.5-1.8,0.5c-1.4-4.5-5-8.1-9.5-8.1c-3.2-5.5-9.1-9.1-15.5-9.1C1039.3,808.9,1033.8,812.4,1030.6,817.4z M1019.7,858.2
		L1019.7,858.2C1020.2,858.2,1020.2,858.2,1019.7,858.2C1020.2,858.2,1019.7,858.2,1019.7,858.2z M1015.2,860.2
		c-0.5,0-0.9,0-0.9,0.5c0.5-1,0.9-2.5,0.9-3.5c0.5,0,0.9,0.5,1.4,0.5c0.5,0.5,0.9,1,1.8,1.5C1017,859.2,1016.1,859.7,1015.2,860.2z
		 M977.9,811.9 M1042.9,732.9c-0.5,1-0.5,2-0.5,2.5c-0.9-3-2.7-5.5-5-7.5c0.5,0,1.4-0.5,1.8-0.5
		C1038.8,730.4,1040.6,732.4,1042.9,732.9z M1029.7,645.8c-2.7,0-5,2.5-5,5c0,2.5,1.4,4,3.2,5c-2.3,1-4.1,2.5-5.5,4.5
		c-5,0.5-9.1,5-9.1,11.1c0,3,0.9,5.5,2.7,7.5c-0.5,0.5-0.5,0.5-0.9,1c-2.3-3.5-5.5-6.5-9.1-7.5c-1.4-1-2.7-2-4.5-2
		c-1.4,0-2.7,0.5-4.1,1.5c-3.6,1-6.4,3-8.6,6c-0.5-1-1.4-2-2.3-2.5c-0.5-2.5-1.4-4.5-2.7-6c3.6-2,5.9-5.5,5.9-10.1
		c0.5,0,0.9,0,1.4,0c2.7,0,5-0.5,7.3-2c-0.9,1-1.4,2.5-1.4,4c0,3.5,2.7,6.5,5.9,6.5c3.2,0,5.9-3,5.9-6.5c0-3.5-2.7-6.5-5.9-6.5
		c-0.5,0-0.9,0-1.4,0.5c0.5-0.5,0.9-1,1.8-2c3.6,0,6.8-2,8.6-4.5c1.4,0.5,2.3,0.5,3.6,0.5c8.2,0,14.5-6.5,15.5-15.1
		c0.5,0,1.4,0,1.8,0c5,0,9.1-3.5,10.5-8.6c0.5,4.5,3.6,7.5,7.7,7.5c4.1,0,7.3-3.5,7.7-8.1h0.5c-0.5,1.5-0.9,3.5-0.9,5c0,0.5,0,1,0,2
		c-1.4,2-2.3,4-2.3,6.5c0,3,0.9,5.5,2.7,7c-0.9,1-1.8,2-2.3,3.5c-0.9-1.5-2.3-2.5-4.1-2.5c-1.4-1-2.7-1.5-4.5-1.5
		c-0.5,0-0.9,0-0.9,0v-0.5c0-3.5-2.7-6.5-5.9-6.5c-3.2,0-5.9,3-5.9,6.5c0,2.5,1.4,4,2.7,5.5c-2.7,1-4.5,2.5-5.9,5h-0.5
		c1.4-1,2.3-2.5,2.3-4.5C1034.3,648.3,1032.5,645.8,1029.7,645.8z M986.1,607.1c4.1,0,7.3-2.5,8.6-6.5c0.5,0,0.9-0.5,1.4-0.5
		c0.9,2.5,2.7,4,4.5,5.5c-4.5,2.5-7.7,6-10,11.1c-0.5-4-2.7-7.5-5.5-9.6C985.6,607.1,985.6,607.1,986.1,607.1z M1045.6,615.1
		c0.5,1,0.9,1.5,1.4,2.5c-0.5,0.5-1.4,1-1.8,2C1045.6,618.1,1045.6,617.1,1045.6,615.1C1045.6,615.6,1045.6,615.1,1045.6,615.1z
		 M1062,667.5c1.4,3,4.1,5.5,7.3,5.5c0.9,0,2.3,0,3.2-0.5c-1.4,1.5-2.3,3.5-3.2,5.5c-0.5,0-0.9,0-1.4,0c-3.6,0-6.8,3-7.7,6.5
		c-0.5,0-0.5,0-0.9,0c1.8-2.5,3.2-5.5,3.2-8.6c0-3.5-1.4-7-3.6-9.6c0.5,0,0.9,0,0.9-0.5C1060.6,666.5,1061.1,667,1062,667.5z
		 M1054.7,663.4c-1.4-0.5-2.7-1-4.1-1c1.8-0.5,3.2-2,4.5-3.5c0.5,0,0.5-0.5,0.9-0.5c0,0,0,0,0,0.5c-0.9,1-1.4,2-1.4,3.5
		C1054.7,662.4,1054.7,662.9,1054.7,663.4z M1075.2,778.7c-2.7,2-4.5,4.5-5.9,8.1c-0.5,0-0.9,0-1.8,0c-0.5,0-0.5,0-0.9,0
		c0,0,0,0,0-0.5c1.4-1.5,2.3-3,2.3-5.5c0-0.5,0-1-0.5-2c2.7-1,5-4,5.9-7.5l0.5,0.5c-0.5,1-0.5,2.5-0.5,3.5
		C1074.7,776.7,1074.7,777.7,1075.2,778.7z M1074.3,744.5c0,0.5,0,0.5,0,1c0,1.5,1.4,3,2.7,3c1.4,0,2.3-1,2.7-2c0.9,0,1.4,0,2.3-0.5
		c0,0.5-0.5,1-0.5,1.5c0,1.5,0.9,3,2.3,3.5c0.5,2,0.9,4,1.8,5.5c-0.5,0-1.4,0.5-1.8,0.5c-0.9-1-2.3-1.5-3.6-1.5c-2.7,0-4.5,2-5.5,4
		c-0.5,0.5-0.9,1.5-1.4,2.5c-0.9-1.5-2.7-3-4.1-3.5c0-0.5,0.5-1,0.5-1.5c0-2-1.4-3.5-3.2-3.5c-1.8,0-3.2,1.5-3.2,3.5
		c0,0.5,0,0.5,0,1c-2.7,1-5,3-6.4,5.5c-0.9-1-1.8-2-3.2-2c0,0,0,0-0.5,0c0-1-0.5-2-0.9-2.5c0,0,0,0,0.5,0c5.9,0,10.5-5,10.5-11.6
		V747c0.5,0.5,1.4,0.5,2.3,0.5c3.2,0,5.9-3,5.9-6.5c0-3.5-2.7-6.5-5.9-6.5c-1.8,0-3.6,1-4.5,3c0-0.5,0.5-1.5,0.5-2
		c0-5.5-4.1-10.6-9.5-10.6c-1.4,0-2.3,0.5-3.6,1c-0.5-2-2.3-3.5-4.1-4c0.5-1,0.9-2.5,0.9-4c0-1,0-1.5-0.5-2.5c0.9-1,1.4-2,1.4-3.5
		c0-1-0.5-1.5-0.9-2.5c1.4-1,2.3-2.5,3.2-4c1.4,3,3.6,5.5,5.9,7c0,7.5,3.6,14.6,9.5,18.1c1.4,2,3.6,3,5.9,3h0.5c0,0,0.5,0,0.5,0.5
		c0,0.5,0,1.5,0,2C1070.6,739.9,1072,742.5,1074.3,744.5z M1077.5,664.4c1.4-2,2.3-4,2.7-6.5c0.5,0,0.5,0,0.9,0c0.9,1,2.3,1.5,3.6,2
		c-0.5,1-0.5,2-0.5,3c-1.4,1-2.3,2.5-2.3,4.5c0,0.5,0,0.5,0,1c-2.3,0-4.5,0.5-6.4,2C1077,668.5,1077.5,666.5,1077.5,664.4z
		 M1077,612.6c2.7-0.5,4.5-2,6.4-4.5c0.5,0,0.5,0,0.9,0.5c-0.5,1.5-0.5,3-0.5,4.5c0,0.5,0,1,0,2c-0.5,0-0.9,0-0.9,0.5
		c-1.8-1-3.6-2-5.9-2C1077,613.1,1077,612.6,1077,612.6z M1085.6,728.9c0.9,1.5,1.8,2,3.2,2.5c-0.5,0.5-0.9,1-0.9,1.5
		C1087,731.4,1086.1,729.9,1085.6,728.9C1085.2,728.9,1085.6,728.9,1085.6,728.9z M1107,676c1.4,2,3.2,3,5.5,3.5v1
		c0,0.5-0.5,0.5-0.5,1c-0.9,0-1.8-0.5-2.7-0.5c-1.8,0-3.2,0.5-5,0.5c0-0.5,0-1,0-1c0-1,0-1.5-0.5-2.5
		C1104.7,678,1106.1,677,1107,676z M1059.7,957.4c0.5,0,0.5,0,0.9,0c-0.5,0.5-0.5,0.5-0.9,1C1059.7,957.9,1059.7,957.4,1059.7,957.4
		z M1087.5,883.4C1087.5,883.4,1087.5,882.9,1087.5,883.4c0.9-1,1.8-1.5,2.3-2.5v1.5C1088.8,882.9,1087.9,882.9,1087.5,883.4z
		 M1052.9,865.8c0.9,0.5,1.4,0.5,2.3,0.5s1.4,0,2.3-0.5c0.5,6.5,3.6,12.1,8.2,15.6c-0.5,0.5-0.9,1-1.4,1.5c-0.5,0-0.5,0-0.9,0
		c-2.3-3-5.9-5-9.5-5c0,0,0,0-0.5,0c-0.9-1.5-1.8-2.5-2.7-3.5c1.8-1,3.2-3,3.2-5.5C1053.8,867.8,1053.4,866.8,1052.9,865.8z
		 M1127,536.6c0.5,0,0.9-0.5,0.9-1v1.5C1127.5,537.1,1127.5,537.1,1127,536.6z M1131.1,503.4c0.5-0.5,0.5-1,0.9-1.5v1.5
		C1131.6,503.4,1131.1,503.4,1131.1,503.4z M1029.3,1035.4l-0.5-0.5l0.5-0.5c0.5,0,0.5,0.5,0.9,0.5
		C1029.3,1035.4,1029.3,1035.4,1029.3,1035.4z M1025.6,1083.2c-1.4-1.5-2.7-2.5-4.5-3c0-1,0-1.5-0.5-2.5c1.8,1.5,4.1,2.5,6.8,2.5
		c0,0,0,0,0.5,0c0.5,0.5,0.5,1,0.9,1.5C1027.5,1082.2,1026.5,1082.7,1025.6,1083.2z M1019.3,1035.4c-0.9-0.5-2.3-0.5-3.2-0.5
		c-1.4,0-3.2,0.5-4.5,1c0-0.5,0.5-1,0.5-2c0-1.5-0.5-3-1.4-4c1.8-0.5,2.7-2.5,2.7-4.5c0-1-0.5-1.5-0.5-2.5c0.9-1,1.8-2.5,1.8-4.5
		c0-0.5,0-0.5,0-1c0.9,2,2.7,3.5,4.5,3.5c0.5,0,1.4,0,1.8-0.5c0,0.5,0.5,1,0.5,1.5c-1.8,1.5-3.2,3.5-3.2,6.5c0,2,0.9,4,2.3,5.5
		C1019.7,1035.4,1019.3,1035.4,1019.3,1035.4z M1016.5,1074.1c-0.5-1.5-1.4-2.5-2.7-2.5h-0.5c0.5-1.5,0.9-3.5,0.9-5.5
		c0-0.5,0-0.5,0-1h0.5c0.5,0.5,1.4,1,1.8,1.5c0,0.5,0,1,0,1.5c0,2.5,0.5,4.5,1.8,6.5C1017.4,1074.1,1017,1074.1,1016.5,1074.1z
		 M1024.3,999.1c0.9,2,2.3,3.5,4.1,4.5c-1.4,1-2.3,2-3.2,3.5c-0.5-2-1.8-4-3.2-5.5C1022.4,1000.6,1023.4,1000.1,1024.3,999.1z
		 M971.1,1175.3c-0.5,0-0.5,0-0.9,0c-0.5-0.5-0.9-1-1.4-1c-0.9-1-1.4-1.5-2.3-2c0.5-1,0.5-2,0.9-3c0.9,0.5,1.8,0.5,2.7,0.5
		c1.4,0,2.3-0.5,3.2-1C972.4,1170.8,971.5,1172.8,971.1,1175.3z M937,1195.9c0.5-1,0.5-2,0.9-3c0.5,0,1.4,0,1.8,0
		c0,0.5,0.5,0.5,0.5,0.5C938.8,1194.4,937.9,1194.9,937,1195.9z M960.6,1105.8c0-0.5,0-1,0.5-1.5l0.5,0.5
		C961.5,1105.3,961.1,1105.3,960.6,1105.8z M952,757.5c0.5-1,0.5-2,0.5-3.5c0.5,0,0.9,0.5,1.4,0.5
		C953.3,755.5,952.4,756.5,952,757.5z M885.6,871.3c-0.5-0.5-0.5-0.5-0.9-1c0.5,0,0.9,0,0.9,0C886,870.8,885.6,871.3,885.6,871.3z
		 M865.1,880.4c-1.4-2-3.6-3.5-6.4-4c1.8-0.5,3.6-2,4.1-4c3.6-1,6.8-4,8.6-7.5c0.9,1,1.8,2,3.2,3
		C869.7,869.3,865.6,874.3,865.1,880.4z M977,633.7C977,633.2,977,633.2,977,633.7c0-1.5-0.5-2.5-0.9-3.5c0.9,0.5,1.8,0.5,2.3,0.5
		C977.9,631.7,977.4,632.7,977,633.7z M1118.4,445.5c-1.4-1-2.3-1.5-4.1-1.5c0-2-1.4-3.5-2.7-4.5c0-0.5,0.5-1,0.5-1.5
		c0-1.5-1.4-3-2.7-3c0-1.5-0.5-3-0.5-4c0.9,0.5,1.8,0.5,2.7,0.5c0.9,0,1.8-0.5,2.7-1c0.9,2,3.2,3.5,5.5,3.5c0,2.5,0.9,5,2.3,7.5
		C1120.2,442.5,1119.3,444,1118.4,445.5z M1115.7,469.2c-1.8,2-2.7,4.5-3.2,7.5h-0.5c-5,0-8.6,4.5-8.6,9.6c0,1,0,1.5,0.5,2.5
		c0,0-0.5,0-0.5,0.5c0-0.5,0-0.5,0-1c0-5.5-2.7-10.1-6.8-12.6c3.2-1.5,5-4.5,5.9-8.1c0.9,1,2.3,1.5,4.1,1.5c2.3,0,4.5-1.5,5.5-3.5
		c0.5,0,1.4,0,1.8,0c0.5,0,0.5,0,0.9,0c0.5,1,1.4,1.5,2.3,2C1115.7,468.2,1115.7,468.7,1115.7,469.2z M1097,502.9
		c-0.5,0-0.9-0.5-1.4-0.5c-0.5,0-0.9,0-0.9,0c-0.5-0.5-0.9-0.5-1.4-1c1.8-0.5,3.2-1.5,5-2.5c0,0.5,0,1,0.5,1
		C1097.5,500.9,1097,501.9,1097,502.9z M1095.7,453.6c3.2-0.5,5.9-2,8.2-4.5c-0.9,1.5-1.4,3.5-1.4,5c-1.4,0.5-2.7,2-3.6,4
		c-0.9-1.5-2.3-2.5-3.6-3C1095.7,454.6,1095.7,454.1,1095.7,453.6z M1117.5,394.2c0.5,1,1.4,1.5,1.8,2c-0.5,0-0.9,0.5-1.4,0.5
		c-0.5-1-0.5-1.5-0.9-2C1117,394.2,1117.5,394.2,1117.5,394.2z M1079.3,448c-0.5,0-0.5,0-0.9,0c0-0.5,0-0.5,0-1c0-1,0-1.5-0.5-2.5
		c0.5,1.5,1.4,2.5,2.3,3.5C1080.6,448,1080.2,448,1079.3,448z M1102.5,365c-0.5-1-1.4-1.5-1.8-2.5c0.5,0,0.9,0,1.4,0
		c0.5,0,1.4,0,1.8,0C1102.9,363.5,1102.9,364,1102.5,365z M1097.9,339.3c0-0.5,0-1,0-1.5c0.5,0,0.9,0.5,0.9,0.5
		C1098.4,338.8,1098.4,338.8,1097.9,339.3z M1092,365.5c-0.5,0.5-0.9,0.5-1.4,1c-1.4-1-2.7-1.5-4.1-1.5c0,0,0,0-0.5,0
		c-0.5,0-0.5-0.5-0.9-0.5c0-0.5,0-1,0-1.5c0-0.5,0-1,0-1.5c2.7-1,5-2.5,7.3-4.5c0.9,2,2.7,4,5,5C1094.7,362,1092.9,363.5,1092,365.5
		z M1372.6,748c-18.2-16.1-50.9-73.5-64.1-99.1l-5.5-12.1c-0.5-2-0.9-4.5-1.4-7c0.5,0,0.5-0.5,0.5-0.5c0-1,0.5-2,0.5-3
		c0-2.5-0.5-4.5-1.4-6.5c-0.5-21.6,5-48.8,7.3-64.9c1.8-13.6-0.9-40.3-5.9-71.5v-0.5c0-2-0.5-3.5-0.9-5c-0.5-2-0.9-4.5-1.4-7
		c0.5-1.5,0.5-2.5,0.5-4c0-3.5-1.4-7-3.2-9.6c-2.3-10.6-4.5-21.6-6.8-32.7c-0.5-2.5-1.4-5.5-1.8-8.1c0-1.5-0.5-2.5-0.9-4
		c-13.2-44.8-44.1-94.1-48.7-101.2c-0.5-0.5-0.5-1-0.9-2c-0.5-1.5-1.4-2.5-2.3-3.5c-0.9-12.1-10-21.1-20.9-21.1c-3.6,0-6.8,1-10,3
		c-0.5-5.5-4.1-10.6-8.6-12.1c-1.8-4-5-7.5-9.1-9.1c-2.3-7-8.6-12.1-15.9-12.1c-6.4,0-11.8,4-15,9.6c-1.8-1-3.2-1.5-5.5-1.5
		c-0.5,0-1.4,0-1.8,0c-0.5-1.5-1.8-3-2.7-4c1.4-1.5,2.3-3.5,2.3-5.5c0-4.5-3.2-8.1-7.3-8.1c-1.4,0-3.2,0.5-4.1,1.5
		c-1.4-2.5-3.2-4.5-5.9-4.5c-0.9-3-3.6-5-6.8-5c-4.1,0-7.3,3.5-7.3,8.1c0,4.5,3.2,8.1,7.3,8.1c0.9,0,1.8,0,2.7-0.5
		c0.9,1,2.3,2,4.1,2c0.9,0,1.4,0,2.3-0.5c0,1,0.5,2,0.9,3c-1.4,0.5-2.3,1.5-3.2,2.5c-3.6,0.5-6.8,4-6.8,8.1c0,4,2.3,7,5.5,8.1
		c0.5,0.5,0.9,1,0.9,1.5c-1.4,1.5-2.3,3.5-2.3,6c0,1,0,2.5,0.5,3.5h-0.5c-5.5,0-10,5-10,11.1c0,4,1.8,7.5,5,9.6c-0.5,1-0.9,2-0.9,3
		c0,3,2.3,5.5,5,5.5c2.7,0,5-2.5,5-5.5c0-0.5,0-1.5-0.5-2c0.5-0.5,1.4-0.5,1.8-1c0,0.5-0.5,1.5-0.5,2.5c0,4,2.7,7,6.4,7
		c3.6,0,6.4-3,6.4-7c0-4-2.7-7-6.4-7c-0.9,0-1.8,0.5-2.7,0.5c0.5-1.5,0.9-2.5,0.9-4h0.5c4.1,0,7.7-3.5,8.2-8.1c0.9,0.5,2.3,1,3.2,1
		c0,0.5,0,0.5,0,1c0,2,1.4,3.5,2.7,4.5c0.5,7,5.9,12.6,12.7,12.6c5,0,9.5-3.5,11.8-8.1c0.9,0.5,1.8,0.5,3.2,1c0.9,1.5,2.3,3,4.1,4
		c-0.9,0.5-1.8,1.5-2.3,2.5c-0.5-2-1.8-3.5-4.1-3.5c-2.3,0-4.1,2-4.1,4.5c0,2,0.9,3.5,2.3,4c-0.9,1-1.8,2-1.8,3.5c0,1,0.5,2,0.9,3
		c0,0.5,0,0.5,0,1c-1.8-4-5.5-7-10-7c-0.5,0-0.9,0-1.4,0c-0.9-1-1.8-1.5-3.2-1.5c-2.3,0-4.5,2-4.5,5c0,0.5,0,1,0.5,1.5
		c-0.9,1.5-1.8,3-1.8,4.5c-0.9,0-1.4-0.5-2.3-0.5c-3.6,0-6.8,1-9.5,3c-1.8-1-3.6-1.5-5.5-1.5c-0.9,0-2.3,0-3.2,0.5
		c0.5-0.5,0.9-1.5,0.9-2c0-2-1.8-4-3.6-4c-1.8,0-3.6,2-3.6,4c0,2,1.4,3.5,3.2,4c-2.7,2-4.5,6-4.5,10.1c0,1.5,0.5,3,0.9,4
		c-0.9,0-1.8,0-2.3,0.5c-0.9-1-1.8-1.5-3.2-1.5c-2.3,0-4.1,2-4.1,4.5c0,1,0.5,1.5,0.5,2c-1.4,1-2.3,2.5-2.7,4.5
		c-0.9-1-2.3-1.5-3.6-1.5c-0.5-4-2.7-7.5-6.4-9.6c1.8,0,3.2-0.5,4.5-1c0.9,1.5,2.7,3,4.5,3c3.2,0,5.5-2.5,5.5-6c0-1.5-0.5-3-1.8-4.5
		c1.8-3,2.7-6.5,2.7-10.1c0-8.6-5.5-16.1-12.7-18.1c-0.9-1-1.8-1.5-3.2-1.5c-0.9,0-1.8,0.5-2.7,1c-0.9,0-2.3,0.5-3.2,0.5
		c0.5-1,0.5-2,0.5-3.5c0.9,0.5,1.8,1,2.7,1c2.3,0,4.5-2,4.5-5c0-3-1.8-5-4.5-5c-1.4,0-2.7,1-3.6,2.5c-0.9-2-2.3-3.5-3.6-5
		c0.9,0.5,2.3,0.5,3.2,0.5c6.8,0,12.3-5.5,13.2-12.6c0.9,0.5,1.4,0.5,2.3,0.5c3.6,0,6.4-3,6.4-7c0-4-2.7-7-6.4-7c-2.3,0-4.1,1-5,3
		c-2.3-3.5-6.4-5.5-10.5-5.5c-3.6,0-6.8,1.5-9.5,4.5c0-0.5,0-1.5,0-2c0-6-4.5-11.1-10-11.1c-5.5,0-10,5-10,11.1s4.5,11.1,10,11.1
		c2.3,0,4.5-1,6.4-2.5c-0.5,1.5-0.5,3-0.5,4.5c0,5,2.3,9.6,5.9,12.1c-0.9,0-1.4-0.5-2.3-0.5c-3.6,0-6.8,2-8.6,4.5
		c-1.8-3.5-5-5.5-8.6-5.5c-5.5,0-10.5,5-10.5,11.6c0,6.5,4.5,11.6,10.5,11.6c2.7,0,5.5-1.5,7.3-3.5c1.8,4,5.9,7,10.5,7
		c0.5,0,0.9,0,1.4,0c-1.4,2.5-2.3,6-2.3,9.1c0,1,0,2,0.5,3c-2.7-2-5.9-3-9.5-3c-5.9,0-11.4,3-15,8.1c-1.4-2.5-3.6-4.5-6.4-4.5
		c-4.1,0-7.3,3.5-7.3,8.1c0,4.5,3.2,8.1,7.3,8.1c0.9,0,1.8,0,2.7-0.5c0,0.5,0,1,0,1.5c0,6.5,2.7,12.1,6.8,15.6
		c-0.9,1.5-1.4,3.5-1.4,5c0,0.5,0,0.5,0,1c-3.2,2.5-5.9,5.5-7.3,10.1c-3.2,2.5-5.5,7-5.5,11.6c0,8.1,5.9,14.6,13.2,14.6
		c1.8,0,3.2-0.5,4.5-1c1.4,0.5,2.7,0.5,4.1,0.5c7.3,0,13.6-5,15.9-12.1c0.5,0,0.5-0.5,0.9-0.5h0.5c0.9,3.5,2.7,6,5.5,8.6v0.5
		c0,0.5,0,0.5,0,1c-0.5,1-0.5,2.5-0.5,4c0,3.5,1.4,6.5,3.6,8.6c0,0.5,0,1,0,1c0,4,2.3,7,5.5,8.1c-0.9,1-1.8,2.5-1.8,4.5
		c-3.2-3.5-7.3-5.5-11.8-5.5c-9.1,0-16.4,8.1-16.4,18.1c0,1.5,0,3,0.5,4.5c-1.4-2.5-3.2-4.5-5.5-5.5c-0.9-3-3.6-5-6.8-5
		c-4.1,0-7.3,3.5-7.3,8.1c0,0.5,0,0.5,0,1c-1.8,2.5-2.7,5-2.7,8.6c0,3,0.9,6,2.7,8.6c-0.5,1-0.5,1.5-0.5,2.5c0,4,2.7,7,6.4,7
		c2.7,0,5.5-2,6.4-5c0,1.5,0.5,3,0.9,4c-1.8,0.5-3.6,2-3.6,4.5c0,2.5,1.8,4.5,4.1,4.5c2.3,0,4.1-2,4.1-4c1.4,0.5,2.7,1,4.1,1
		c0.9,0,1.8,0,2.7-0.5c0,0.5,0.5,1,0.9,1.5c-1.4,1-2.3,3-2.3,5c0,0.5,0,1,0,1.5c-2.3,2.5-4.1,6-4.1,10.6v0.5c-1.4,1.5-1.8,3.5-1.8,6
		c0,5,3.6,9.6,8.6,9.6c1.4,0,2.7-0.5,3.6-1c-0.9,1-1.4,2.5-1.4,4c0,2,0.9,3.5,1.8,4.5v0.5c0,3.5,2.7,6,5.5,6c2.3,0,4.1-1.5,5-3.5
		c0.5,0,0.5-0.5,0.9-0.5c1.8,2,4.1,3,6.4,3c5,0,9.5-4.5,9.5-10.6c1.8,1,3.6,1.5,5.5,1.5c-3.2,0.5-5,3.5-5,7c0,0.5,0,1.5,0.5,2
		c-2.3,1-3.6,3.5-3.6,6.5c0,0,0,0,0,0.5c-0.9-2.5-3.2-4-5.5-4c-3.2,0-5.9,3-5.9,6.5c0,3.5,2.7,6.5,5.9,6.5c3.2,0,5.9-3,5.9-6.5
		c0.5,1,0.9,2,1.8,3c-0.9,0.5-1.4,1.5-1.4,2.5c0,1.5,1.4,3,2.7,3c1.4,0,2.7-1.5,2.7-3c0-0.5,0-0.5,0-1h0.5c0.9,0,1.8-0.5,2.7-0.5
		c0.5,0.5,0.5,0.5,0.9,1c-0.5,0.5-0.5,1-0.5,2s0.5,2,1.4,3c-1.8,0.5-3.6,2.5-3.6,5c0,2,0.9,3.5,2.7,4.5c0.5,2,1.8,3.5,4.1,4v1.5
		c-0.9-1.5-2.7-2.5-4.5-2.5c-3.2,0-5.5,3-5.5,6c0,0.5,0,1,0.5,1.5c-0.5,0-0.9,0-0.9,0c-3.6,0-6.8,1-9.5,3c0,0,0,0-0.5,0
		c-0.9,0-1.8,0-2.3,0.5c0-3.5-2.7-6.5-5.9-6.5c-1.8,0-3.6,1-4.5,3c-2.3-4-6.4-6.5-10.9-6.5c-4.5,0-8.2,2.5-10.5,6
		c-0.5,0-0.5,0-0.9-0.5c-0.5-1-1.4-2.5-1.8-3.5c4.5-0.5,8.2-3.5,9.5-8.1c1.8-2,3.2-4.5,3.2-7.5c0-0.5,0-1.5,0-2h0.5
		c1.4,0,2.7-0.5,4.1-1c-0.9,2-1.8,4-1.8,6c0,6.5,4.5,11.6,10.5,11.6c5.9,0,10.5-5,10.5-11.6c0-6.5-4.5-11.6-10.5-11.6
		c-2.3,0-4.1,0.5-5.5,2c0.5-1.5,0.9-3,0.9-4.5c0-5-3.6-9.1-8.2-9.1c-4.5,0-8.2,4-8.2,9.1c0,0.5,0,0.5,0,1c-0.5,0-0.9,0-1.8,0
		c-2.7,0-5.5,1.5-7.3,3.5c-0.5,0-0.5,0.5-0.9,0.5c0-0.5,0-0.5,0-1c0-5-3.6-9.6-8.6-9.6c-4.5,0-8.6,4-8.6,9.6c0,5,3.6,9.6,8.6,9.6
		c0.9,0,1.8,0,2.7-0.5c0,1-0.5,2-0.5,2.5c0,2,0.5,4,1.4,6c-0.5,0-1.4,0-1.8,0c-0.9,0-1.8,0-2.7,0.5c-0.9-2-2.3-3-4.1-3
		c-2.3,0-3.6,1.5-4.1,4c-0.5,0-0.9,0-0.9,0.5c-1.8-1-3.6-2-5.5-2c-5.5,0-10,5-10,11.1c0,1,0,2,0.5,2.5c-1.4,0.5-2.7,2.5-2.7,4.5
		c0,2.5,1.8,5,4.5,5c0,7,5.5,13.1,11.8,13.1c2.7,0,5-1,6.8-2.5c0.9,0,1.4,0,2.3-0.5c0.9,0.5,2.3,0.5,3.6,1c0,0.5,0.5,1,0.5,1.5v0.5
		c0,2,0.5,3.5,0.9,5c-0.5,0-0.5,0-0.9,0.5c-1.4-2.5-3.6-4-6.4-4c-2.3,0-4.1,1-5.5,2.5c-0.9-0.5-1.8-1-2.7-1c-3.2,0-5.5,2.5-5.5,6
		c0,3.5,2.3,6,5.5,6c0.5,0,0.9,0,1.4-0.5c0.5,1,0.9,1.5,1.8,2.5c-0.5,2-0.9,4-0.9,6.5c0,0.5,0,1,0,1.5c-2.7-4.5-7.3-7.5-12.3-7.5
		c-5,0-9.1,2.5-11.8,7c-1.4-1-3.2-1.5-4.5-2c1.4-1.5,2.3-3,3.2-5c1.4-1.5,2.3-3,2.3-5.5c0-2.5-1.4-5-3.2-6c-2.3-3.5-5.9-6-10-6
		c-0.9,0-1.8,0-2.7,0.5c-0.5-1.5-0.9-3-1.4-4c1.4-2,2.7-4,3.6-6c0.5-0.5,0.5-1,0.5-1.5c0.5-2,0.9-4.5,0.9-6.5
		c0-12.1-9.1-22.1-20-22.1c-1.8,0-3.2,0.5-4.5,0.5c0.5-1,0.9-2,0.9-3c0-3.5-2.7-6-5.5-6c-1.8,0-3.2,1-4.1,2c-0.9-0.5-1.8-1-3.2-1
		c-3.2,0-5.5,2.5-5.5,6c0,3.5,2.3,6,5.5,6c1.8,0,3.2-1,4.1-2c0.5,0.5,0.9,0.5,1.8,1c-7.7-1-11.4,6-11.4,13.6c0,0.5,0,0.5,0,1
		c-1.4,1-2.7,2-3.6,3.5c0-0.5,0-1,0-1.5c0-3-1.4-5.5-3.2-7.5c0-4-3.2-7.5-7.3-7.5c-4.1,0-7.3,3.5-7.3,8.1c0,1,0.5,2,0.5,3
		c-0.5,1-0.9,2.5-0.9,4c0,5.5,4.1,10.1,9.1,10.1c2.3,0,4.1-1,5.9-2.5c0,0,0,0,0.5,0c-0.5,1.5-0.5,2.5-0.5,4c0,2.5,0.5,5,1.4,7
		c-0.9,0-1.4-0.5-2.3-0.5c-0.9,0-1.4,0-1.8,0.5c0-0.5,0-0.5,0-1c0-4-3.2-7.5-6.8-7.5s-6.8,3.5-6.8,7.5c0,4,3.2,7.5,6.8,7.5
		c-0.5,1-0.5,2.5-0.5,3.5c0,6,4.1,10.6,9.5,10.6c5.5,0,9.5-4.5,9.5-10.6c0-1,0-2-0.5-3c1.4,0.5,2.7,1,4.5,1.5c0.5,1.5,1.4,3,2.3,4
		c0,1.5,0.5,3,1.4,4.5h-0.5c-4.1,0-7.3,3.5-7.3,8.1c0,0.5,0,0.5,0,1c-0.5,0.5-0.5,1-0.9,2c-1.4-1.5-3.2-2-5-2
		c-4.1,0-7.7,3.5-7.7,8.6c0,4.5,3.2,8.6,7.7,8.6c2.3,0,4.1-1,5.5-2.5c0.9,1.5,1.8,2.5,2.7,3.5c-2.7,0-4.5,2.5-4.5,5
		c0,2.5,2.3,5,4.5,5c1.4,0,2.7-1,3.6-2c-0.5,1.5-0.9,3.5-0.9,5c0,2.5,0.5,4.5,1.4,7c-1.8,0.5-3.6,2-4.5,3.5c0-0.5,0-0.5,0-1
		c0-5.5-4.1-10.6-9.1-10.6c-0.5-0.5-1.4-0.5-2.3-0.5c-1.8,0-3.6,1.5-4.5,3c-2.3,2-3.2,5-3.2,8.1c0,6,4.5,10.6,9.5,10.6
		c2.7,0,5.5-1.5,7.3-3.5c0,0.5,0,0.5,0,1c0,2.5,0.9,4.5,1.8,6.5c-5,2-8.2,6.5-8.2,12.6c0,7.5,5.5,13.6,12.3,13.6
		c1.8,0,3.6-0.5,5.5-1.5c0.5,0,0.5,0,0.9,0c0,0.5-0.5,1.5-0.5,2c0,4,3.2,7.5,6.8,7.5h0.5c0.5,1,0.9,1.5,1.8,2.5c0,0.5,0.5,0.5,0.5,1
		c-0.9-0.5-1.8-1-2.7-1c-2.3,0-4.1,2-4.1,4.5c0,2.5,1.8,4.5,4.1,4.5c2.3,0,4.1-2,4.1-4.5c0-1-0.5-2-0.9-3c1.4,2,3.6,3.5,5.9,3.5
		c2.7,6.5,8.6,11.1,15,11.1c0.5,1.5,1.8,3,3.6,3c1.4,0,2.3-0.5,2.7-1.5c0.9,0.5,1.4,0.5,2.3,0.5c2.3,0,4.5-1.5,5.5-4
		c0.5,0,0.9,0.5,1.4,0.5c0,0.5-0.5,1.5-0.5,2.5c0,3,0.9,5.5,2.7,7c-0.9,0-1.8,0-2.7,0.5c-1.4-0.5-3.2-1-5-1c-4.1,0-7.7,1.5-10.9,4
		c0-0.5,0-1,0-1.5c0-4-2.7-7.5-6.8-7.5c-3.6,0-6.8,3.5-6.8,7.5c0,4,3.2,7.5,6.8,7.5c0.5,0,0.9,0,1.8,0c-1.8,3-2.7,6.5-2.7,10.6
		c-0.9,0-1.8-0.5-3.2-0.5c-8.6,0-15.9,8.1-15.9,17.6c0,9.6,7.3,17.6,15.9,17.6c1.8,0,3.6-0.5,5.5-1c0.5,0.5,1.4,0.5,2.3,0.5
		c2.7,0,4.5-2,4.5-5v-0.5c0.5-0.5,0.9-1.5,1.4-2c0.5,0.5,0.9,0.5,1.4,1c0.9,2,2.3,4,4.1,5c-0.9,0.5-1.8,2-1.8,3.5c0,2,1.4,4,3.6,4
		c1.8,0,3.6-1.5,3.6-4c0-1-0.5-2-0.9-2.5c0.9,0,1.8-0.5,2.3-0.5c0.9,1,1.8,2,2.7,3c-0.9,1-1.8,2-2.7,3c-5.9,0-10.9,5.5-10.9,12.1
		c0,1,0,2,0.5,3c-1.8-1.5-4.1-2-5.9-2c-6.4,0-11.4,5.5-11.4,12.6c0,0.5,0,0.5,0,1c-0.9-2.5-3.2-4-5.5-4c-0.9,0-1.8,0.5-2.7,1
		c0.9-1.5,1.4-3.5,1.4-5.5c0-2-0.5-4-1.4-5.5c0.5,0,1.4,0.5,1.8,0.5c3.2,0,5.9-3,5.9-6.5c0.5-1,0.9-2,0.9-3c0-2.5-1.8-4.5-4.1-4.5
		c-0.9,0-1.8,0.5-2.7,1c0,0,0,0-0.5,0c-3.2,0-5.9,3-5.9,6.5c0,1,0,1.5,0.5,2.5c-1.4-1-2.7-1.5-4.5-1.5c-5.5,0-9.5,5-9.5,10.6
		c0,2.5,0.9,4.5,2.3,6.5c-0.5,0-0.5,0-0.9,0c-2.7,0-4.5,2.5-4.5,5c0,0.5,0,1,0.5,1.5c-0.5,0-1.4,0-1.8,0.5h-0.5c0.9-1,1.4-2.5,1.4-4
		c0-4-3.2-7.5-6.8-7.5c-0.9,0-1.8,0-2.3,0.5c0.9-1,1.4-2,1.8-3.5c0.5,0,0.5,0,0.9,0c8.2,0,14.5-7,14.5-16.1c0-1,0-2-0.5-3
		c2.3-1,4.1-3.5,4.1-6.5c0-4-2.7-7-6.4-7c-1.8,0-3.6,1-5,2.5c-0.9-0.5-1.4-1-2.3-1v-0.5c2.3-2,3.6-4.5,3.6-8.1c0-5-3.6-9.1-8.2-9.6
		c0.9-1,1.8-2.5,2.3-4.5c1.8-1,3.6-2.5,5-4c2.3,2,5,3,8.2,3c7.7,0,14.1-7,14.1-15.6c0-7.5-5-13.6-11.4-15.1c0-0.5-0.5-1-0.5-1.5
		c2.3-1,3.6-3.5,3.6-6.5c0-4-2.7-7-6.4-7c-3.6,0-6.4,3-6.4,7c0,1,0,1.5,0.5,2.5c-2.3,1-3.6,3-4.1,5.5c-2.7-2-5.9-3-9.1-3
		c-4.1,0-8.2,2-10.9,4.5v-0.5c0-7-5.5-13.1-11.8-13.1c-0.9,0-1.8,0-2.3,0.5c-0.5-5.5-3.6-10.1-8.2-12.6c4.5,0,7.7-4,7.7-8.6
		c0-5-3.6-8.6-7.7-8.6c-4.1,0-7.7,4-7.7,8.6c0,3,1.8,6,4.1,7.5c-0.5,0-1.4,0-1.8,0c-0.9,0-2.3,0-3.2,0.5c-0.5-0.5-0.9-0.5-1.4-1
		c-0.9-3-3.2-5.5-6.4-5.5c-0.5,0-1.4,0-1.8,0.5c0-2-0.5-4-0.9-6c0.9-1,1.4-2,1.8-3.5c1.4-2,2.3-5,2.3-8.1c0-2-0.5-4-1.4-6
		c0.9,0,1.4,0.5,2.3,0.5c5.5,0,10-5,10-11.1c0-6-4.5-11.1-10-11.1s-10,5-10,11.1c0,1.5,0.5,3,0.9,4c-1.4-0.5-2.7-0.5-4.1-0.5
		c-3.6,0-7.3,2-9.5,5c-1.8-3-5-5-8.2-5c-1.8,0-3.2,0.5-4.5,1c-0.5-3-2.3-5-5-5c-1.8,0-3.6,1.5-4.5,3c-3.6,1.5-5.9,5.5-5.9,9.6
		c0,5.5,4.1,10.6,9.5,10.6c1.4,0,2.7-0.5,3.6-1c1.8,2,4.1,3,6.8,3c1.4,0,2.7-0.5,3.6-1c-1.8,2.5-3.2,6-3.2,9.6
		c0,6.5,4.1,12.1,9.5,14.1c-2.3,4-3.6,8.6-3.6,13.6c0,6,2.3,11.6,5.5,15.6c-2.7,1-5,4-5,8.1c0,4.5,3.2,8.6,7.7,8.6
		c4.1,0,7.3-3.5,7.7-7.5h0.5c0.9,0,1.8-0.5,2.3-1c0.9,0,1.8,0.5,3.2,0.5c2.3,0,4.1-0.5,5.9-1c3.2,0,5.9-1.5,7.7-3.5
		c0.9,2,2.7,3.5,4.5,3.5c0.9,0,1.4,0,1.8-0.5c1.8,1.5,3.6,2,6.4,2c2.3,0,4.1-0.5,5.9-2c0.5,0,0.5,0,0.9,0c0.5,0,1.4,0,1.8-0.5
		c0.5,3.5,1.8,6.5,4.1,9.1c-0.5,0-1.4,0-1.8,0c-0.5,0-0.5,0-0.9,0c0-3-2.3-5.5-5-5.5c-2.7,0-5,2.5-5,5.5c0,2,0.9,4,2.7,5
		c-0.5,1-0.9,2-1.4,3.5c-1.4-1-3.2-2-5-2c-0.5-5-3.6-8.6-8.2-8.6c-4.5,0-8.2,4-8.2,9.1c0,1.5,0.5,3,1.4,4.5c-2.7,3-4.5,7.5-4.5,12.1
		c0,1.5,0,3,0.5,4c-0.9,0-1.8-0.5-3.2-0.5c-0.9,0-1.4,0-2.3,0.5c-1.4-2-3.6-3.5-6.4-3.5c-4.5,0-8.2,4-8.2,9.1c0,2.5,0.9,5,2.7,6.5
		c0,1-0.5,2-0.5,3c0,1,0,2.5,0.5,3.5c-1.8,2-3.2,5-3.2,8.6c0,1.5,0.5,3,0.9,4c-0.5,0-0.9,0-1.8,0v-0.5c0-1,0-2-0.5-3
		c0-1,0.5-1.5,0.5-2.5c0-4.5-3.2-8.1-7.3-8.1c-1.8,0-3.2,0.5-4.5,1.5c-5.5,0.5-10,5.5-10,12.1c0,6,4.1,11.1,9.1,12.1
		c-0.9,2-1.4,4.5-1.4,6.5c0,8.6,5,15.1,11.8,17.6c-0.9,0-1.8-0.5-2.7-0.5c-5.9,0-11.4,4-13.6,9.6c-2.3-3-5.9-4.5-10-4.5
		c-7.7,0-13.6,6.5-13.6,15.1c0,5,2.3,9.6,5.5,12.1c0,0,0,0,0,0.5c0,3.5,2.3,6,5.5,6.5c-3.2,1-5.9,4-5.9,8.1c0,4.5,3.2,8.6,7.7,8.6
		c3.6,0,6.4-3,7.3-6.5c1.8,4.5,6.4,8.1,11.4,8.1h0.5v0.5c-2.3,1.5-4.1,4.5-5,7.5c-2.7-1.5-5.9-2.5-9.1-2.5c-4.5,0-9.1,2-12.3,5
		c-0.9-1-2.3-1.5-3.6-1.5c-3.6,0-6.4,3-6.4,7c0,0.5,0,1,0,1.5c0,0,0,0,0,0.5c-0.9,0-1.4-0.5-2.3-0.5c-5,0-9.1,4.5-9.1,10.1
		c0,5.5,4.1,10.1,9.1,10.1c2.7,0,5-1,6.8-3c2.7,8.1,10,13.6,18.2,13.6c5,0,9.5-2,13.2-5.5c-0.9,1-1.4,2.5-1.4,4
		c-5.5,2.5-9.5,8.1-9.5,15.1c0,3.5,1.4,7,3.2,10.1c-1.4-1-2.7-1.5-4.5-1.5c-2.7,0-5.5,2-6.8,4.5c0,0,0,0-0.5,0c-1.4,0-2.7,0.5-3.6,1
		c-3.6-5-9.1-8.6-15-8.6c-4.5,0-9.1,2-12.3,5h-0.5c-1.4,0-2.7,1.5-2.7,3c0,0.5,0,0.5,0,0.5c-1.8,3-3.2,6.5-3.6,10.6
		c-3.6,1.5-5.9,5-5.9,9.1c0,5.5,4.1,10.1,9.1,10.1c1.4,0,2.7-0.5,4.1-1c3.2,3,7.3,4.5,11.8,4.5c9.5,0,17.7-8.1,18.6-18.1
		c2.3,0,4.5-1.5,5.9-3.5c0.5,0,0.9,0,0.9,0c4.5,0,7.7-4,7.7-8.6c0-1.5-0.5-3.5-1.4-4.5c2.7,2.5,5.9,4,9.5,4c5.9,0,10.9-3.5,13.2-9.1
		c0.5,0,0.9,0,1.4,0h0.5c3.2,7,9.5,11.6,16.8,11.6c6.8,0,12.7-4,15.9-10.1h0.5c1.8,0,3.2-1.5,3.2-4c0-1.5-0.5-2.5-1.4-3
		c0.5-1.5,0.5-2.5,0.5-4c0-11.6-8.2-20.6-18.6-20.6c-0.9,0-2.3,0-3.2,0.5c-0.9-0.5-2.3-0.5-3.2-0.5c0-3-2.3-5.5-5.5-5.5
		c-3.2,0-5.5,2.5-5.5,6v0.5c-1.8-1-3.6-2-5.5-2c-2.7,0-5,1-7.3,3c-0.5,0-0.9-0.5-1.4-0.5c-1.4,0-2.7,0.5-3.6,1.5
		c3.6-4,5.5-9.1,5.5-15.1c0-1,0-1.5-0.5-2.5c0.5,0,0.5,0,0.9,0c6.4,0,11.8-5.5,11.8-13.1c0-6.5-4.5-12.1-10.9-12.6c0-0.5,0-1-0.5-1
		c0.9-0.5,1.4-1,1.8-2c3.6-1,6.4-4.5,6.4-8.6c0-1.5-0.5-3-0.9-4.5c2.3-0.5,4.1-2.5,4.1-5.5c0-2.5-1.4-4-3.2-5c3.2-3,5-7.5,5-12.1
		c0-7.5-4.5-13.6-10.5-15.6c0.9,0,1.8,0.5,3.2,0.5c0.5,0,0.9,0,1.8,0c0,2.5,1.8,4.5,4.1,4.5c0,0,0,0,0.5,0c0,0,0,0,0,0.5
		c0,4,1.8,7.5,4.5,9.6c-0.9,2-1.4,4-1.4,6.5c0,7.5,5,14.1,11.8,15.1c-1.4,0.5-2.3,2.5-2.3,4c0,2.5,1.8,4.5,4.1,4.5
		c2.3,0,4.1-2,4.1-4.5c0-2-0.9-3.5-2.3-4c0.5,0,0.5,0,0.9,0c0.9,0.5,1.8,1,3.2,1c3.6,0,6.4-3,6.4-7v-0.5c1.4-2,1.8-4,2.3-6.5
		c0.5,0,0.5,0,0.9,0c2.3,0,4.1-2,4.1-4.5c0-1.5-0.9-2.5-1.8-3.5c2.3-0.5,4.1-2.5,4.1-5c0-2.5-1.4-4-3.2-5c0.9-1.5,1.4-3,1.4-5
		c0-4.5-3.2-8.6-7.7-8.6c-4.1,0-7.7,3.5-7.7,8.6c0,4.5,3.2,8.6,7.7,8.6h0.5c0,0.5-0.5,1-0.5,1.5c0,2,0.9,3.5,2.3,4.5
		c-0.5,0-0.9,0-1.4,0.5c-1.8-4-4.5-7-8.6-8.6c0-0.5,0-1,0-1.5c0-6.5-4.5-11.6-10.5-11.6c-1.8,0-3.6,0.5-5,1.5c2.7-3.5,5-8.1,5-13.1
		c0-1.5,0-2.5-0.5-4c1.4,0,2.3-1.5,2.3-3c0-1.5-1.4-3-2.7-3c-0.5,0-0.9,0-1.4,0.5c-0.5-1-0.9-1.5-1.4-2c3.2-1.5,5.5-4.5,6.4-8.1
		c5.9-2,10-8.1,10-15.1c0-1,0-2-0.5-2.5c1.4,0.5,2.7,1,4.5,1c4.1,0,7.3-1.5,10-4c0.9,0.5,1.8,0.5,2.7,0.5c5,0,9.1-4.5,9.1-10.1
		c0-2-0.5-4-1.4-5.5c3.6-0.5,6.4-3.5,7.7-7c-0.5,1-0.5,2-0.5,3c0,0.5,0,1,0,1.5c-0.5,1-0.5,2-0.5,3.5c0,2,0.9,4,1.8,5.5
		c-3.6,3-6.4,7.5-6.4,13.1c0,0.5,0,0.5,0,1c-0.5-0.5-1.4-0.5-1.8-0.5c-3.2,0-5.9,3-5.9,6.5c0,3,1.8,5.5,4.5,6v0.5
		c0,5,3.6,9.6,8.6,9.6c1.4,0,2.3-0.5,3.6-1c-0.9,1-1.4,2.5-1.4,4c0,2,0.5,3.5,1.8,5h-0.5c-8.6,0-15.5,7.5-15.5,17.1
		c0,6,2.7,11.1,6.8,14.1c0.5,1,0.9,2,1.4,3c-2.3,2.5-3.6,6.5-3.6,10.1c-3.6,0.5-6.8,4-6.8,8.6c0,1.5,0.5,3.5,1.4,4.5
		c-1.8-0.5-3.2-1-5-1c-8.2,0-15,7.5-15,16.6c0,9.1,6.8,16.6,15,16.6c5.5,0,10-3,12.7-8.1c1.4,0.5,2.7,1,4.1,1
		c4.5,0,8.6-2.5,10.9-6.5c0.9-0.5,1.8-1.5,2.3-2.5c0,3,0.9,5.5,2.3,7.5v0.5c0,2,0.5,4,0.9,6c-1.4,1.5-2.3,3-2.7,5
		c-1.4-1.5-3.2-2.5-5.5-3c0-2-1.4-3.5-3.2-3.5c-1.8,0-3.2,1.5-3.2,3.5c0,1,0.5,1.5,0.9,2.5c-1.4,1.5-2.3,4-2.3,6.5
		c0,2,0.5,4,1.8,5.5c0,2.5,1.8,5,4.5,5c1.4,0,2.3-0.5,3.2-1.5c2.7-0.5,5.5-3,6.4-6c1.8,2.5,4.1,4,7.3,4c1.8,0,3.6-0.5,5-2v0.5
		c0,4.5,3.2,8.1,7.3,8.1c1.4,0,2.3-0.5,3.6-1c0.9,1,2.3,1.5,3.6,1.5c3.2,0,5.9-3,5.9-6.5c0-0.5,0-0.5,0-1c2.7-1.5,4.5-4.5,4.5-8.1
		c0-3.5-1.8-6.5-4.1-8.1c0.9,0.5,1.8,1,3.2,1c0.5,0,1.4,0,1.8-0.5c1.8,2,3.6,4,6.4,4.5c1.4,3,4.5,4.5,7.7,4.5c5,0,9.1-4.5,9.1-10.1
		v-0.5c1.8,1.5,4.1,3,6.8,4c1.4,2,4.1,3.5,6.8,3.5c2.7,0,5.5-1.5,6.8-4l0.5,0.5c-0.5,0.5-0.5,0.5-0.9,1c-1.8,1-3.6,3.5-3.6,6
		c-2.3,2-3.6,5-3.6,8.6c-0.9,0.5-2.3,1-2.7,2c-0.9-0.5-1.8-1-3.2-1c-3.6,0-6.4,3-6.4,7c0,4,2.7,7,6.4,7c0.9,0,1.4,0,2.3-0.5
		c-5,1.5-9.1,5.5-11.4,10.6c-0.9-1-2.3-2-3.6-2.5c0.5-1,0.9-2.5,0.9-4c0-5-3.6-8.6-7.7-8.6c-2.3,0-4.1,1-5.9,2.5
		c-0.9-1.5-2.7-2.5-4.5-2.5c-3.2,0-5.9,3-5.9,6.5c0,2.5,1.4,4.5,2.7,5.5c-4.1,1.5-7.3,5.5-7.3,10.6c0,0.5,0,1,0,2
		c-0.5,1.5-0.5,2.5-0.9,4c-0.9,1-1.8,2.5-2.3,4h-0.5c0-1,0.5-2,0.5-3c0-0.5,0-1,0-1.5c1.8-1.5,3.2-3.5,3.2-6.5c0-4-3.2-7.5-6.8-7.5
		c-2.3,0-4.1,1-5.5,3c-0.9-0.5-1.8-0.5-2.7-0.5c-2.7,0-5.5,1-7.3,3c-0.9-1.5-2.7-2.5-4.5-2.5c-2.7,0-4.5,2-5.5,4.5
		c-0.9,0.5-1.8,1-2.3,2c-0.9-0.5-1.8-0.5-2.7-0.5c-3.2,0-5.9,3-5.9,6.5c0,3.5,2.7,6.5,5.9,6.5c3.2,0,5.5-2.5,5.9-6
		c0.9,0,1.8-0.5,2.3-1c0.5,0,1.4,0.5,1.8,0.5c0,0,0,0,0,0.5c0,6,3.6,11.1,8.6,12.6c0,0.5-0.5,1-0.5,2c0,0.5,0,1,0.5,1.5
		c-0.9,2-1.8,4-1.8,6.5c0,2.5,0.5,5,1.8,7c-3.6,0.5-5.9,4-5.9,8.1c0,4.5,3.2,8.1,7.3,8.1c1.8,0,3.2-0.5,4.5-1.5
		c1.8,3.5,5,5.5,8.6,6.5c0.9,2,2.7,3,5,3c3.2,0,5.9-3,5.9-6.5c0-0.5,0-0.5,0-0.5c2.3-2.5,3.6-5.5,3.6-9.6c0-5-2.3-9.1-5.5-11.6
		c0-1,0.5-1.5,0.5-2.5c0-1.5-0.5-3-0.9-4.5c0.5-0.5,0.5-1.5,0.5-2.5c0.5,0.5,0.9,1,1.4,1.5c-0.9,1-1.8,2.5-1.8,4c0,3,2.3,5.5,5,5.5
		c2.7,0,4.5-2,5-5c0.9,0,1.8,0.5,2.7,0.5c-0.5,1-0.9,2.5-0.9,4c0,3,1.4,5.5,3.2,7.5c-2.7,1.5-4.5,4.5-4.5,8.6c0,1.5,0.5,3,0.9,4
		c-2.7,0-5.5,2.5-5.5,6c0,1.5,0.9,3.5,1.8,4.5c-0.5,0.5-0.5,1-0.5,2c-0.9-0.5-1.8-1-3.2-1c-2.7,0-5,2.5-5,5.5c0,2,0.9,3.5,2.7,4.5
		c-3.2,1-5.9,4.5-5.9,8.6c0,1.5,0.5,3,0.9,4.5c-0.9,0-1.4,0-2.3,0.5c-0.5-4.5-4.1-8.1-8.2-8.1c-4.5,0-8.2,4-8.2,9.1
		c0,4,2.3,7,5.5,8.6c-0.5,1-0.9,1.5-0.9,2.5c-0.9-1-1.8-1.5-3.2-1.5c-2.3,0-4.1,2-4.1,4.5c0,1,0.5,2,0.9,2.5c-2.3,2-3.6,5-3.6,8.6
		c0,5.5,4.1,10.6,9.1,11.1c0.5,1,0.9,2,1.8,2.5c1.4,4,3.6,7,6.8,9.1c0,0.5,0.5,1,0.5,1.5c-4.5,2-8.6,6.5-10,11.6
		c-0.9-1-2.3-2-4.1-2.5c3.2-2,5.5-6,5.5-10.6c0-5.5-3.6-10.6-8.2-12.1c-0.5-6-3.6-11.1-8.2-13.6c-0.5-1.5-0.9-3.5-1.4-5
		c0-0.5,0.5-1,0.5-2c0-3.5-2.7-7-6.4-7c-0.5,0-0.9,0-1.4,0c0-0.5,0-1.5,0-2c0-1,0-2.5-0.5-3.5c0.5-0.5,0.9-0.5,1.4-1
		c0.9,1.5,2.3,2.5,4.1,2.5c0,0,0,0,0.5,0c-0.5,0.5-0.5,1.5-0.5,2c0,3,2.3,5.5,5,5.5c2.7,0,5-2.5,5-5.5c0-3-2.3-5.5-5-5.5
		c0,0,0,0-0.5,0c0-0.5,0.5-1.5,0.5-2c0-3-2.3-5.5-5-5.5c-0.5,0-0.9,0-1.4,0.5c0-0.5,0-1-0.5-1c6.4-1.5,10.9-7.5,10.9-14.6
		c0-2.5-0.5-5-1.8-7c0-0.5,0.5-1,0.5-2c0-2.5-1.8-4.5-4.1-4.5c-0.5,0-1.4,0-1.8,0.5c-1.8-1-3.6-1.5-5.9-1.5c-5,0-9.5,3-11.8,7.5
		c-0.5,0-1.4-0.5-1.8-0.5c-3.2,0-5.9,2-6.8,5c-1.4,1-2.3,2.5-3.2,4c-1.4-0.5-2.7-1-4.1-1c-5,0-8.6,4.5-8.6,9.6c0,4,2.3,7.5,5.5,9.1
		c0,0.5-0.5,0.5-0.5,1c-0.5,0-0.9,0-1.4,0c-2.7,0-5,1-6.8,2.5c-2.3-1.5-4.5-2-7.3-2c-3.6,0-7.3,1.5-10,4.5c-1.8-3-5-5-8.6-5
		c-1.4,0-2.7,0.5-4.1,1c-0.5-2-2.3-4-4.5-4c-2.7,0-4.5,2.5-4.5,5c0,2.5,1.4,4.5,3.6,5c-0.5,1.5-0.9,3-0.9,5c0,3,0.9,5.5,2.3,7.5
		c-2.7,0.5-5,3-5,6.5c0,3.5,2.7,6.5,5.9,6.5c3.2,0,5.9-3,5.9-6.5c0-0.5,0-1.5-0.5-2c0.5,0,1.4,0,1.8,0c1.8,0,3.6-0.5,5.5-1.5
		c0.5,0.5,0.5,1,0.9,1.5c-0.5,1.5-0.5,3-0.5,4.5c0,5,2.3,9.6,5.9,12.1c0,1.5,1.4,3,2.7,3c0.9,0,1.4-0.5,2.3-1c0.5,0,1.4,0,1.8,0
		c6.4,0,11.8-5.5,12.7-12.6c1.8,1,3.6,2,5.9,2c-0.5,1.5-0.9,3.5-0.9,5c0,1,0,2,0.5,3c0,0,0,0-0.5,0c-3.6,0-6.4,3-6.4,7
		c0,3.5,2.7,6.5,5.9,7c0,3.5,2.7,6,5.9,6c3.2,0,5.9-3,5.9-6.5c0-1.5-0.5-2.5-1.4-4c0.5,0,0.9,0,0.9,0c1.8,0,3.6-0.5,5.5-1.5
		c1.4,2,3.2,3.5,5,5c-0.5,1-0.9,2-0.9,3.5c0,4,2.7,7,6.4,7c1.8,0,3.6-1,4.5-2c0,0.5-0.5,1.5-0.5,2c0,3.5,2.7,6.5,5.9,6.5
		c0.9,0,1.8-0.5,2.7-0.5c0.9,2.5,3.2,4,5.9,4c1.8,0,3.2-1,4.5-2c0.9,3,2.3,6,4.1,8.1c-0.5,0-0.5,0-0.9,0c-2.7,0-5,2.5-5,5.5
		c0,2.5,1.4,4,3.2,5c-2.7,1-4.5,4-4.5,7.5c0,4.5,3.2,8.1,7.3,8.1c4.1,0,7.3-3.5,7.3-8.1c0-4-2.7-7-5.9-8.1c1.4-1,2.3-2.5,2.3-4.5
		c0-0.5,0-1.5-0.5-2c0.9,0.5,2.3,1.5,3.6,1.5c0.9,1,1.8,1.5,3.2,1.5c0.5,0,1.4,0,1.8-0.5c0,0,0,0,0.5,0c6.4,0,11.8-4,14.5-9.6
		c1.4-0.5,2.3-1.5,2.3-3.5c0-0.5,0-1-0.5-1.5c0-0.5,0-1,0-1.5c1.8,1,4.1,1.5,6.4,2c0.5,1,0.9,2.5,1.4,3.5c-4.5,1-8.2,4-10,8.6h-0.5
		c-1.4,0-2.7,1.5-2.7,3c0,0.5,0,1,0,1c-0.5,0-0.5,0.5-0.9,0.5c-0.5-2-1.8-3-3.6-3c-2.3,0-3.6,2-3.6,4c0,2.5,1.8,4,3.6,4h0.5
		c0,0.5,0,1.5,0,2c0,1,0,2,0.5,2.5c-2.3,1.5-4.1,4.5-4.1,7.5c0,1.5,0.5,3,0.9,4.5c-2.3,0.5-4.5,1-6.8,2.5c-1.8-1.5-4.1-3-6.4-3
		c-4.5,0-8.2,3.5-9.1,8.1l-0.5,0.5c0.5-1,0.5-2,0.5-3c0-4-3.2-7.5-6.8-7.5c-1.8,0-3.2,1-4.5,2c-2.7-4.5-7.3-7.5-12.3-7.5
		c-7.7,0-14.1,7-14.5,15.6c-0.9,0-1.8,0.5-2.3,0.5c0.5-1.5,0.9-3,0.9-4.5c0-7.5-5.9-14.1-12.7-14.1c-6.8,0-12.7,6.5-12.7,14.1
		c0,1,0,2,0.5,3v0.5c0,1.5,0.5,3,0.9,4c-2.3,0.5-3.6,2.5-3.6,4.5c0,0.5,0,1,0.5,1.5c-3.2,3.5-5.5,8.1-5.9,13.6
		c-0.5,10.6,6.8,19.1,16.4,19.6c5.9,0.5,11.4-3,14.5-8.1c0,0.5,0,1,0,1.5c0,1,0,1.5,0.5,2.5c-0.9,0.5-1.8,1.5-1.8,2.5
		c0,1.5,1.4,3,2.7,3c0.9,0,1.4-0.5,1.8-1c0.5,0.5,1.4,1,1.8,1c0.9,1.5,2.3,3,4.1,3c1.8,0,3.2-1,4.1-3c1.8,1,3.6,2,5.9,2
		c1.8,0,3.2-0.5,4.5-1c4.5-0.5,8.2-4.5,9.1-9.6c0.9-1,1.8-2,2.7-3c0.5,0,0.9,0,1.4,0c3.6,0,6.8-2,9.1-5.5c1.8,0.5,3.6,1,5.5,1
		s4.1-0.5,5.9-1c2.7,2,5.9,3,9.5,3c10,0,17.7-9.1,17.7-19.6c0.5,0,1.4,0,1.8,0c2.3,0,4.5-0.5,6.4-2c0.9,0.5,2.3,1,3.2,1
		c3.6,0,6.8-3.5,6.8-7.5c0-1.5-0.5-3-1.4-4c2.7-1,5.5-2.5,7.3-5c0.9-0.5,1.8-1,2.7-1.5c0,0,0,0,0,0.5c0,9.1,6.8,16.6,15,16.6
		c1.4,0,2.7-0.5,4.1-1c2.3,1.5,4.5,2.5,7.7,2.5c3.2,0,5.9-1,8.2-3c1.4,0.5,2.7,0.5,4.1,0.5c5,0,9.5-2.5,12.3-6c0.5,0,0.9,0,1.4,0
		c1.8,0,3.6-0.5,5.5-1c2.7,7,9.5,12.6,16.8,12.6c0.9,0,1.4,0,2.3,0c8.6,1.5,16.8,3.5,23.6,5c25.5,6,98.2,18.6,142.8-2
		c48.7-22.6,47.7-54.9,39.6-84c-7.3-27.2-14.1-29.7-5-46.3c5.5-9.1,29.6-7.5,36.4-20.1c6.8-12.6,3.2-29.2-1.8-39.3
		c-5-10.1-33.2-12.6-33.6-15.6c-0.5-3,25.9-16.1,39.6-22.1c17.7-8.1,15.9-32.2,11.8-43.8c-4.1-11.6-15.5-14.6-22.7-25.2
		c-7.3-10.6-0.5-34.2,10-37.2c10.5-3,28.6-12.1,38.6-32.7C1412.1,796.8,1392.6,765.1,1372.6,748z"/>
	<g>
		<path class="st1" d="M1423.2,1013.8v-89.6h18.1v89.6H1423.2z"/>
		<path class="st1" d="M1517.5,1013.8h-17.2v-33.1c0-7-0.4-11.5-1.1-13.6c-0.7-2.1-1.9-3.7-3.6-4.8c-1.6-1.1-3.6-1.7-6-1.7
			c-3,0-5.6,0.8-8,2.4c-2.4,1.6-4,3.8-4.9,6.5c-0.9,2.7-1.3,7.7-1.3,14.9v29.4h-17.2v-64.9h16v9.5c5.7-7.3,12.8-11,21.4-11
			c3.8,0,7.3,0.7,10.4,2.1c3.1,1.4,5.5,3.1,7.1,5.2s2.7,4.5,3.4,7.2c0.6,2.7,0.9,6.5,0.9,11.6V1013.8z"/>
		<path class="st1" d="M1577.3,1038.5v-32.6c-2.2,2.9-5,5.2-8.4,6.9c-3.3,1.7-6.9,2.5-10.8,2.5c-7.4,0-13.4-2.8-18.2-8.3
			c-5.6-6.5-8.4-15.3-8.4-26.3c0-10.4,2.6-18.6,7.9-24.4c5.3-5.8,11.8-8.8,19.7-8.8c4.3,0,8.1,0.9,11.2,2.8c3.2,1.8,6,4.6,8.4,8.3
			v-9.6h15.8v89.6H1577.3z M1577.9,980.5c0-6.6-1.4-11.6-4.1-14.8c-2.7-3.2-6.1-4.9-10.2-4.9c-4.2,0-7.6,1.7-10.4,4.9
			c-2.8,3.3-4.2,8.5-4.2,15.7c0,7.1,1.3,12.3,4,15.4c2.7,3.2,6,4.7,10,4.7c4,0,7.4-1.8,10.4-5.3
			C1576.4,992.8,1577.9,987.6,1577.9,980.5z"/>
		<path class="st1" d="M1654.1,1013.8v-9.7c-2.4,3.5-5.5,6.2-9.3,8.2c-3.8,2-7.9,3-12.2,3c-4.4,0-8.3-1-11.7-2.9
			c-3.5-1.9-6-4.6-7.5-8.1c-1.5-3.5-2.3-8.3-2.3-14.4v-41.1h17.2v29.8c0,9.1,0.3,14.7,0.9,16.8c0.6,2.1,1.8,3.7,3.5,4.9
			c1.7,1.2,3.8,1.8,6.4,1.8c2.9,0,5.6-0.8,7.9-2.4c2.3-1.6,3.9-3.6,4.8-6c0.9-2.4,1.3-8.2,1.3-17.5v-27.4h17.2v64.9H1654.1z"/>
		<path class="st1" d="M1687.8,940.1v-15.9h17.2v15.9H1687.8z M1687.8,1013.8v-64.9h17.2v64.9H1687.8z"/>
		<path class="st1" d="M1715.7,1013.8v-13.4l24.3-27.9c4-4.6,6.9-7.8,8.9-9.7c-2,0.1-4.6,0.2-7.9,0.2l-22.9,0.1v-14.2h53.7V961
			l-24.8,28.6l-8.7,9.5c4.8-0.3,7.7-0.4,8.9-0.4h26.6v15.1H1715.7z"/>
		<path class="st1" d="M1777.1,948.9h18.3l15.5,46.1l15.2-46.1h17.8l-22.9,62.5l-4.1,11.3c-1.5,3.8-2.9,6.7-4.3,8.7
			c-1.4,2-2.9,3.6-4.7,4.9c-1.8,1.2-3.9,2.2-6.5,2.9c-2.6,0.7-5.5,1-8.8,1c-3.3,0-6.5-0.3-9.7-1l-1.5-13.5c2.7,0.5,5.1,0.8,7.3,0.8
			c4,0,6.9-1.2,8.9-3.5c1.9-2.3,3.4-5.3,4.4-9L1777.1,948.9z"/>
		<path class="st1" d="M1884.6,948.9v13.7h-11.7v26.2c0,5.3,0.1,8.4,0.3,9.3c0.2,0.9,0.7,1.6,1.5,2.2c0.8,0.6,1.8,0.9,2.9,0.9
			c1.6,0,3.9-0.5,6.9-1.7l1.5,13.3c-4,1.7-8.5,2.6-13.6,2.6c-3.1,0-5.9-0.5-8.4-1.6c-2.5-1-4.3-2.4-5.5-4c-1.2-1.7-2-3.9-2.4-6.7
			c-0.4-2-0.6-6-0.6-12.1v-28.3h-7.9v-13.7h7.9V936l17.2-10v22.9H1884.6z"/>
	</g>
	<g>
		<path class="st2" d="M1077.4,707.2c-2.4,0-4.5,1.4-5.7,3.3h-84.5L936,684.6H714.5l-6.7-7.9c0.2-0.7,0.4-1.4,0.4-2.2
			c0-3.8-3-6.8-6.8-6.8c-3.8,0-6.8,3-6.8,6.8s3,6.8,6.8,6.8c0.3,0,0.6-0.1,0.9-0.2l8.9,10.4h223.1l37.4,18.9h-226l-17.6,19.4h-72.9
			l-17.6-22.4H544L525.3,740h-18.8l-48.8-53.2h-106c-1.2-1.9-3.2-3.3-5.7-3.3c-3.8,0-6.8,3-6.8,6.8s3,6.8,6.8,6.8
			c2.4,0,4.5-1.4,5.7-3.3h102.9L497,740h-66.9l-22.7-32.2H243.7l-94,53.5c-1-0.5-2-0.9-3.2-0.9c-3.8,0-6.8,3-6.8,6.8s3,6.8,6.8,6.8
			c3.7,0,6.7-2.9,6.8-6.6l92.4-52.5h133.3l-17.4,19.7h-71.4l-44.5,50.2h-45.1l-76.5,43c-1-0.6-2.1-0.9-3.3-0.9c-3.8,0-6.8,3-6.8,6.8
			s3,6.8,6.8,6.8c3.7,0,6.6-2.9,6.8-6.6l74.8-42h46.4l44.5-50.2h71.4l23.5-26.7h15.7l11.5,16.3l-18.1,20.9h-64.1
			c-1.2-1.9-3.2-3.3-5.7-3.3c-3.8,0-6.8,3-6.8,6.8s3,6.8,6.8,6.8c2.4,0,4.5-1.4,5.7-3.3h67.3l19.1-22l7,10h102.9l18.7-32.4h41.3
			l-44.7,48.6h-78.1l-63.1,80.6c-0.3-0.1-0.6-0.2-1-0.2c-3.8,0-6.8,3-6.8,6.8s3,6.8,6.8,6.8s6.8-3,6.8-6.8c0-0.8-0.2-1.4-0.4-2.1
			l61.1-78.1h77.8l51.1-55.6h35.4l17.6,22.4h79.4l17.6-19.4h181.1c-7.8,3.7-19.4,9.3-37.3,18.1H775.3c-1.2-1.9-3.2-3.3-5.7-3.3
			c-3.8,0-6.8,3-6.8,6.8s3,6.8,6.8,6.8c2.4,0,4.5-1.4,5.7-3.3h118.9l0.7-0.4c18.2-8.9,47.6-23.1,51.5-24.7h125.3
			c1.2,1.9,3.2,3.3,5.7,3.3c3.8,0,6.8-3,6.8-6.8C1084.2,710.3,1081.2,707.2,1077.4,707.2z"/>
		<path class="st2" d="M190.3,641.6c2.4,0,4.5-1.4,5.7-3.3h15.9l31.1,36.2h164.8l17-32h34.4l48.1,54.4h162.7
			c1.2,1.9,3.2,3.3,5.7,3.3c3.8,0,6.8-3,6.8-6.8c0-3.8-3-6.8-6.8-6.8c-2.4,0-4.5,1.4-5.7,3.3H510.4l-41.9-47.4h60.6l14.8,32h91.6
			l19.7-22.5h72.8l15.2,19.3h124.2c1.2,1.9,3.2,3.3,5.7,3.3c3.8,0,6.8-3,6.8-6.8s-3-6.8-6.8-6.8c-2.4,0-4.5,1.4-5.7,3.3H746.5
			L731.3,645h-79.4l-19.7,22.5h-84l-14.8-32h-113l-17,32H246.2l-31.1-36.2h-19.1c-1.2-1.9-3.2-3.3-5.7-3.3c-3.8,0-6.8,3-6.8,6.8
			C183.5,638.5,186.5,641.6,190.3,641.6z"/>
	</g>
	<g>
		<path class="st2" d="M1374.5,828.2c-2.4,0-4.5,1.4-5.7,3.3h-84.5l-51.3-25.9h-221.5l-6.7-7.9c0.2-0.7,0.4-1.4,0.4-2.2
			c0-3.8-3-6.8-6.8-6.8c-3.8,0-6.8,3-6.8,6.8s3,6.8,6.8,6.8c0.3,0,0.6-0.1,0.9-0.2l8.9,10.4h223.1l37.4,18.9h-226l-17.6,19.4h-72.9
			l-17.6-22.4h-93.6l-18.7,32.4h-18.8l-48.8-53.2h-106c-1.2-1.9-3.2-3.3-5.7-3.3c-3.8,0-6.8,3-6.8,6.8s3,6.8,6.8,6.8
			c2.4,0,4.5-1.4,5.7-3.3h102.9l42.4,46.2h-66.9l-22.7-32.2H540.7l-94,53.5c-1-0.5-2-0.9-3.2-0.9c-3.8,0-6.8,3-6.8,6.8
			s3,6.8,6.8,6.8c3.7,0,6.7-2.9,6.8-6.6l92.4-52.5h133.3l-17.4,19.7h-71.4l-44.5,50.2h-45.1l-76.5,43c-1-0.6-2.1-0.9-3.3-0.9
			c-3.8,0-6.8,3-6.8,6.8s3,6.8,6.8,6.8c3.7,0,6.6-2.9,6.8-6.6l74.8-42h46.4l44.5-50.2h71.4l23.5-26.7h15.7l11.5,16.3L694.2,873
			h-64.1c-1.2-1.9-3.2-3.3-5.7-3.3c-3.8,0-6.8,3-6.8,6.8s3,6.8,6.8,6.8c2.4,0,4.5-1.4,5.7-3.3h67.3l19.1-22l7,10h102.9l18.7-32.4
			h41.3l-44.7,48.6h-78.1l-63.1,80.6c-0.3-0.1-0.6-0.2-1-0.2c-3.8,0-6.8,3-6.8,6.8s3,6.8,6.8,6.8s6.8-3,6.8-6.8
			c0-0.8-0.2-1.4-0.4-2.1l61.1-78.1h77.8l51.1-55.6h35.4l17.6,22.4h79.4l17.6-19.4H1227c-7.8,3.7-19.4,9.3-37.3,18.1h-117.3
			c-1.2-1.9-3.2-3.3-5.7-3.3c-3.8,0-6.8,3-6.8,6.8s3,6.8,6.8,6.8c2.4,0,4.5-1.4,5.7-3.3h118.9l0.7-0.4c18.2-8.9,47.6-23.1,51.5-24.7
			h125.3c1.2,1.9,3.2,3.3,5.7,3.3c3.8,0,6.8-3,6.8-6.8C1381.3,831.2,1378.2,828.2,1374.5,828.2z"/>
		<path class="st2" d="M487.3,762.5c2.4,0,4.5-1.4,5.7-3.3h15.9l31.1,36.2h164.8l17-32h34.4l48.1,54.4H967c1.2,1.9,3.2,3.3,5.7,3.3
			c3.8,0,6.8-3,6.8-6.8c0-3.8-3-6.8-6.8-6.8c-2.4,0-4.5,1.4-5.7,3.3H807.4l-41.9-47.4h60.6l14.8,32h91.6l19.7-22.5h72.8l15.2,19.3
			h124.2c1.2,1.9,3.2,3.3,5.7,3.3c3.8,0,6.8-3,6.8-6.8s-3-6.8-6.8-6.8c-2.4,0-4.5,1.4-5.7,3.3h-120.8l-15.2-19.3H949l-19.7,22.5h-84
			l-14.8-32h-113l-17,32H543.2l-31.1-36.2H493c-1.2-1.9-3.2-3.3-5.7-3.3c-3.8,0-6.8,3-6.8,6.8C480.5,759.4,483.6,762.5,487.3,762.5z
			"/>
	</g>
	<g>
		<path class="st2" d="M1286.7,1014.7c-2.4,0-4.5,1.4-5.7,3.3h-84.5l-51.3-25.9H923.7l-6.7-7.9c0.2-0.7,0.4-1.4,0.4-2.2
			c0-3.8-3-6.8-6.8-6.8c-3.8,0-6.8,3-6.8,6.8s3,6.8,6.8,6.8c0.3,0,0.6-0.1,0.9-0.2l8.9,10.4h223.1l37.4,18.9H955l-17.6,19.4h-72.9
			l-17.6-22.4h-93.6l-18.7,32.4h-18.8l-48.8-53.2h-106c-1.2-1.9-3.2-3.3-5.7-3.3c-3.8,0-6.8,3-6.8,6.8s3,6.8,6.8,6.8
			c2.4,0,4.5-1.4,5.7-3.3h102.9l42.4,46.2h-66.9l-22.7-32.2H452.9l-94,53.5c-1-0.5-2-0.9-3.2-0.9c-3.8,0-6.8,3-6.8,6.8
			s3,6.8,6.8,6.8c3.7,0,6.7-2.9,6.8-6.6l92.4-52.5h133.3l-17.4,19.7h-71.4l-44.5,50.2h-45.1l-76.5,43c-1-0.6-2.1-0.9-3.3-0.9
			c-3.8,0-6.8,3-6.8,6.8s3,6.8,6.8,6.8c3.7,0,6.6-2.9,6.8-6.6l74.8-42H458l44.5-50.2h71.4l23.5-26.7h15.7l11.5,16.3l-18.1,20.9
			h-64.1c-1.2-1.9-3.2-3.3-5.7-3.3c-3.8,0-6.8,3-6.8,6.8s3,6.8,6.8,6.8c2.4,0,4.5-1.4,5.7-3.3h67.3l19.1-22l7,10h102.9l18.7-32.4
			h41.3l-44.7,48.6h-78.1l-63.1,80.6c-0.3-0.1-0.6-0.2-1-0.2c-3.8,0-6.8,3-6.8,6.8s3,6.8,6.8,6.8s6.8-3,6.8-6.8
			c0-0.8-0.2-1.4-0.4-2.1l61.1-78.1H757l51.1-55.6h35.4l17.6,22.4h79.4l17.6-19.4h181.1c-7.8,3.7-19.4,9.3-37.3,18.1H984.6
			c-1.2-1.9-3.2-3.3-5.7-3.3c-3.8,0-6.8,3-6.8,6.8s3,6.8,6.8,6.8c2.4,0,4.5-1.4,5.7-3.3h118.9l0.7-0.4c18.2-8.9,47.6-23.1,51.5-24.7
			H1281c1.2,1.9,3.2,3.3,5.7,3.3c3.8,0,6.8-3,6.8-6.8C1293.5,1017.7,1290.4,1014.7,1286.7,1014.7z"/>
		<path class="st2" d="M399.5,949c2.4,0,4.5-1.4,5.7-3.3h15.9l31.1,36.2H617l17-32h34.4l48.1,54.4h162.7c1.2,1.9,3.2,3.3,5.7,3.3
			c3.8,0,6.8-3,6.8-6.8c0-3.8-3-6.8-6.8-6.8c-2.4,0-4.5,1.4-5.7,3.3H719.6l-41.9-47.4h60.6l14.8,32h91.6l19.7-22.5h72.8l15.2,19.3
			h124.2c1.2,1.9,3.2,3.3,5.7,3.3c3.8,0,6.8-3,6.8-6.8s-3-6.8-6.8-6.8c-2.4,0-4.5,1.4-5.7,3.3H955.8l-15.2-19.3h-79.4l-19.7,22.5
			h-84l-14.8-32h-113l-17,32H455.4l-31.1-36.2h-19.1c-1.2-1.9-3.2-3.3-5.7-3.3c-3.8,0-6.8,3-6.8,6.8C392.7,946,395.7,949,399.5,949z
			"/>
	</g>
</g>
</svg>
